<?xml version="1.0" encoding="UTF-8"?>
<svg version="1.1" xmlns="http://www.w3.org/2000/svg" width="390" height="211">
<path d="M0 0 C2.07022181 -0.00389347 4.14044283 -0.00822947 6.21066284 -0.01298523 C10.53255819 -0.02041509 14.85437179 -0.02017866 19.17626953 -0.01489258 C24.69837772 -0.00908669 30.22015172 -0.02607182 35.74220467 -0.04923725 C40.01115861 -0.06400405 44.28003246 -0.06484254 48.54900742 -0.06172752 C50.58465108 -0.06223874 52.62029946 -0.06743869 54.65591812 -0.07753944 C57.50536847 -0.08995091 60.35417238 -0.08308521 63.20361328 -0.0715332 C64.03294373 -0.07917694 64.86227417 -0.08682068 65.71673584 -0.09469604 C73.79954781 -0.0226933 81.40349797 2.02307641 87.6796875 7.30078125 C93.04712862 14.35554803 94.42760954 20.50249834 93.6796875 29.30078125 C91.61003124 35.83653786 88.22935927 41.16275258 82.0859375 44.45214844 C77.46257551 46.67078395 73.42632709 46.82006887 68.3671875 46.69140625 C67.51286133 46.68574646 66.65853516 46.68008667 65.77832031 46.67425537 C63.07817997 46.65205515 60.37941943 46.60189245 57.6796875 46.55078125 C55.83725889 46.53069499 53.99480926 46.51244796 52.15234375 46.49609375 C47.66093535 46.45224443 43.17054448 46.38333377 38.6796875 46.30078125 C38.68153109 46.98308524 38.68337467 47.66538923 38.68527412 48.3683691 C38.72950513 64.99515828 38.76256932 81.62192874 38.78331184 98.24876308 C38.79361022 106.28948013 38.80764297 114.33015783 38.83056641 122.37084961 C38.85054442 129.38175629 38.86341439 136.39263445 38.86786449 143.4035688 C38.87046442 147.11340081 38.8765452 150.82315128 38.89114761 154.53295708 C38.90734319 158.68143151 38.90766436 162.82976551 38.90673828 166.97827148 C38.91392883 168.19891296 38.92111938 169.41955444 38.92852783 170.67718506 C38.9037278 180.95925116 38.29770267 188.77245807 30.8828125 196.4140625 C25.5858018 200.9503323 20.0555187 201.84142377 13.19921875 201.578125 C6.22990796 200.81096056 1.49718585 198.94988015 -3.03125 193.5078125 C-7.42328116 185.98812279 -7.75074252 179.3661395 -7.70507812 170.82958984 C-7.7104509 169.59935593 -7.71582367 168.36912201 -7.72135925 167.10160828 C-7.73111602 164.44033226 -7.73559035 161.77967854 -7.73100281 159.11845016 C-7.72415879 154.90703616 -7.7401182 150.69589184 -7.75939941 146.48452759 C-7.80035839 136.78863355 -7.8117959 127.09274784 -7.82292938 117.39678192 C-7.8334477 108.50016249 -7.85025705 99.60367376 -7.89102507 90.70713484 C-7.90934198 86.52391504 -7.91328834 82.34100684 -7.90608978 78.15775657 C-7.90420699 74.94285732 -7.92146657 71.72804654 -7.93554688 68.51318359 C-7.92939865 67.35977982 -7.92325043 66.20637604 -7.91691589 65.01802063 C-7.96025959 59.38895373 -8.04091767 55.11454029 -11.3203125 50.30078125 C-14.56737655 47.35812946 -17.23383901 46.38277925 -21.6328125 46.05078125 C-25.78171887 46.33206304 -27.89970845 46.94436512 -31.3203125 49.30078125 C-36.04274141 55.54983197 -35.87674871 61.1664698 -35.80273438 68.81030273 C-35.80860313 70.6798764 -35.80860313 70.6798764 -35.81459045 72.58721924 C-35.82055873 75.28744472 -35.81941899 77.9865524 -35.8061676 80.6866436 C-35.78574548 84.96156065 -35.79584502 89.23608039 -35.8104248 93.51100159 C-35.83939612 103.35742362 -35.82874158 113.20372702 -35.81772614 123.0501709 C-35.808037 132.07603358 -35.80683746 141.10168726 -35.83760691 150.12751442 C-35.85093438 154.37134565 -35.84508725 158.61457487 -35.82424164 162.85836971 C-35.81309994 166.12623323 -35.82764693 169.39400943 -35.83789062 172.66186523 C-35.82091881 174.41159386 -35.82091881 174.41159386 -35.80360413 176.19667053 C-35.85478525 183.0335186 -36.72804131 187.44681172 -40.3203125 193.30078125 C-40.9803125 193.30078125 -41.6403125 193.30078125 -42.3203125 193.30078125 C-42.3203125 193.96078125 -42.3203125 194.62078125 -42.3203125 195.30078125 C-49.18742848 200.77061805 -55.7384986 201.89420455 -64.3203125 201.30078125 C-71.47005544 199.61848879 -77.40050238 195.56541328 -81.3203125 189.30078125 C-84.23156605 182.86283617 -84.73806817 176.8493921 -84.64501953 169.8659668 C-84.64385132 168.86289993 -84.64268311 167.85983307 -84.64147949 166.82637024 C-84.63432886 163.52986511 -84.60612321 160.23388814 -84.578125 156.9375 C-84.56997387 154.62173423 -84.56331608 152.30596278 -84.55807495 149.9901886 C-84.54098986 143.89701596 -84.50679192 137.80406731 -84.46801758 131.71099854 C-84.40879245 122.0004654 -84.37454381 112.28982571 -84.34225082 102.57917213 C-84.32850724 99.2184682 -84.30686999 95.85789051 -84.28396606 92.49723816 C-84.24879508 86.43109148 -84.26470673 80.36674638 -84.3203125 74.30078125 C-84.32908543 72.85779348 -84.32908543 72.85779348 -84.33803558 71.38565445 C-84.36603375 68.63039058 -84.43018089 65.87854535 -84.50732422 63.12426758 C-84.5159357 61.9117471 -84.5159357 61.9117471 -84.52472115 60.67473125 C-84.74673906 54.92661519 -86.19351937 52.32632604 -90.3203125 48.30078125 C-94.24564298 46.33811601 -99.03098922 46.95937346 -103.3203125 47.30078125 C-107.63651496 49.00927806 -109.38370484 51.13207143 -111.3203125 55.30078125 C-111.76472919 58.64404304 -111.73723693 61.96378559 -111.72094727 65.33251953 C-111.72792633 66.33970535 -111.7349054 67.34689117 -111.74209595 68.38459778 C-111.76208531 71.71351479 -111.76157261 75.04212201 -111.76171875 78.37109375 C-111.77349398 80.69173007 -111.78685856 83.01235883 -111.80174255 85.33297729 C-111.83795763 91.44762588 -111.85813258 97.56220749 -111.87329102 103.67694092 C-111.89809353 113.44229355 -111.93802391 123.20749788 -111.99519157 132.97271347 C-112.01143001 136.37313098 -112.01529092 139.77340726 -112.01820374 143.17385864 C-112.02798992 145.28013342 -112.0382548 147.38640605 -112.04907227 149.49267578 C-112.04651932 150.42710007 -112.04396637 151.36152435 -112.04133606 152.32426453 C-112.11537908 161.99042786 -113.28354211 170.9244131 -118.3203125 179.30078125 C-118.67609375 179.90277344 -119.031875 180.50476563 -119.3984375 181.125 C-120.4453125 182.80078125 -120.4453125 182.80078125 -122.3203125 185.30078125 C-122.9803125 185.30078125 -123.6403125 185.30078125 -124.3203125 185.30078125 C-124.3203125 185.96078125 -124.3203125 186.62078125 -124.3203125 187.30078125 C-124.9803125 187.30078125 -125.6403125 187.30078125 -126.3203125 187.30078125 C-126.3203125 187.96078125 -126.3203125 188.62078125 -126.3203125 189.30078125 C-126.9803125 189.30078125 -127.6403125 189.30078125 -128.3203125 189.30078125 C-128.3203125 189.96078125 -128.3203125 190.62078125 -128.3203125 191.30078125 C-140.29828875 200.27801188 -152.77742055 201.46800778 -167.2578125 201.3984375 C-168.37849121 201.39702255 -169.49916992 201.3956076 -170.65380859 201.39414978 C-174.20933783 201.38858264 -177.76480252 201.37603623 -181.3203125 201.36328125 C-183.7408845 201.358262 -186.1614575 201.35369984 -188.58203125 201.34960938 C-194.49481344 201.33862397 -200.40755835 201.32191877 -206.3203125 201.30078125 C-206.3203125 200.64078125 -206.3203125 199.98078125 -206.3203125 199.30078125 C-205.30324219 198.97207031 -205.30324219 198.97207031 -204.265625 198.63671875 C-186.78060955 192.67922041 -172.32934584 180.90032376 -164.0703125 164.17578125 C-158.11171829 150.004887 -156.73556139 136.98432163 -156.78125 121.8203125 C-156.77130958 119.99101097 -156.75935588 118.16171941 -156.74551392 116.33244324 C-156.7134626 111.56181513 -156.70278828 106.79141605 -156.69866943 102.02069092 C-156.68984566 94.37850043 -156.65396991 86.73649504 -156.6064949 79.09445763 C-156.59407998 76.45301903 -156.59465202 73.81182569 -156.59677124 71.17036438 C-156.55890144 55.21030887 -155.13920142 39.51406516 -147.3203125 25.30078125 C-146.6489716 23.96979529 -145.98109904 22.63703847 -145.3203125 21.30078125 C-144.6603125 21.30078125 -144.0003125 21.30078125 -143.3203125 21.30078125 C-143.08054688 20.56859375 -142.84078125 19.83640625 -142.59375 19.08203125 C-138.82326969 10.84711719 -130.25871003 6.32004948 -122.1796875 3.17578125 C-108.51588782 -1.00549078 -95.63337415 1.01297297 -83.22265625 7.4765625 C-75.1167781 12.5713742 -69.49643651 20.99636923 -66.77331638 30.13683701 C-66.27061582 32.53817622 -66.18068141 34.73208466 -66.16209412 37.18560791 C-66.14741089 38.6579187 -66.14741089 38.6579187 -66.13243103 40.15997314 C-66.12667557 41.23027771 -66.1209201 42.30058228 -66.11499023 43.40332031 C-66.10509064 44.5353186 -66.09519104 45.66731689 -66.08499146 46.83361816 C-66.05338653 50.57785953 -66.02862287 54.32211359 -66.00390625 58.06640625 C-65.98333587 60.66144136 -65.96233937 63.25647312 -65.94093323 65.85150146 C-65.89136556 71.98539187 -65.84609794 78.11930023 -65.80291086 84.25323844 C-65.75349711 91.23750941 -65.69859435 98.22173385 -65.64323127 105.2059598 C-65.52948549 119.57085657 -65.42263038 133.93579876 -65.3203125 148.30078125 C-64.3303125 148.63078125 -63.3403125 148.96078125 -62.3203125 149.30078125 C-62.31884594 148.74070027 -62.31737938 148.1806193 -62.31586838 147.60356617 C-62.27867702 133.92107243 -62.21925213 120.23882698 -62.13640976 106.55653095 C-62.09700681 99.93961449 -62.06478295 93.32282969 -62.04931641 86.70581055 C-62.03410277 80.31249512 -61.99957314 73.91954182 -61.95200348 67.52638817 C-61.93723826 65.09496405 -61.9292743 62.66348822 -61.92842865 60.23201942 C-61.91564053 41.8892908 -61.29087527 26.21397007 -48.18359375 11.98046875 C-34.55656142 -0.90932448 -17.62122545 -0.01383759 0 0 Z " fill="#5A824A" transform="translate(294.3203125,3.69921875)"/>
<path d="M0 0 C0.84906418 -0.00637985 1.69812836 -0.0127597 2.57292175 -0.01933289 C3.49156509 -0.02044571 4.41020844 -0.02155853 5.35668945 -0.02270508 C6.31331985 -0.02603348 7.26995026 -0.02936188 8.25556946 -0.03279114 C10.2890271 -0.03786025 12.32249308 -0.04019947 14.35595703 -0.04003906 C17.41298979 -0.04219612 20.46964387 -0.06026908 23.52661133 -0.0793457 C44.76827416 -0.14230788 66.21236257 0.76516543 83.7824707 14.14526367 C84.58297852 14.75241211 85.38348633 15.35956055 86.20825195 15.98510742 C92.15779546 20.87473226 96.0218715 26.4706923 99.7824707 33.14526367 C100.17176758 33.81299805 100.56106445 34.48073242 100.9621582 35.16870117 C106.83291039 45.9545017 108.89259268 57.80601901 108.92773438 69.94726562 C108.93109299 70.68178955 108.9344516 71.41631348 108.93791199 72.1730957 C108.94733077 74.57659647 108.94936049 76.9800269 108.95043945 79.38354492 C108.95365832 81.0721184 108.95702285 82.76069161 108.96052551 84.44926453 C108.96649411 87.98034308 108.96836775 91.51139723 108.96777344 95.04248047 C108.96767194 99.54093749 108.98132135 104.03923625 108.99854565 108.53765583 C109.00972824 112.02348025 109.01169073 115.50926714 109.01116371 118.99510765 C109.01233452 120.65230034 109.01670504 122.30949429 109.02449608 123.96666908 C109.11740487 145.76853082 104.90443261 164.75478778 89.3449707 181.02026367 C72.84244945 196.64978466 53.35327857 201.28872272 31.2980957 201.31323242 C30.23886902 201.31656082 29.17964233 201.31988922 28.08831787 201.32331848 C25.86641877 201.32834804 23.64451221 201.33072805 21.42260742 201.33056641 C18.02811388 201.3327665 14.63393876 201.35100145 11.23950195 201.36987305 C9.07153431 201.37280511 6.90356513 201.37479116 4.7355957 201.37573242 C3.72611877 201.38291794 2.71664185 201.39010345 1.67657471 201.39750671 C-7.51100405 201.36769845 -13.09772146 199.09482972 -20.4050293 193.45776367 C-24.50119079 188.23162659 -25.91811121 181.68402818 -25.2175293 175.14526367 C-23.17147685 166.57556575 -19.70532616 161.7822633 -12.2175293 157.16088867 C-8.58601911 155.31676241 -5.27951524 155.02144534 -1.24047852 155.01928711 C-0.25199921 155.01548035 0.7364801 155.01167358 1.75491333 155.00775146 C2.81846039 155.00672424 3.88200745 155.00569702 4.9777832 155.00463867 C7.24341821 154.98630451 9.50904348 154.96673364 11.7746582 154.94604492 C15.33602268 154.91714251 18.89676277 154.89526514 22.45825195 154.89477539 C25.90282193 154.89142278 29.34596314 154.85675913 32.7902832 154.81713867 C33.84168488 154.82420837 34.89308655 154.83127808 35.97634888 154.83856201 C43.96086526 154.70845473 50.72327098 152.86881289 56.72781372 147.36077881 C61.78931097 141.97905688 63.02494485 136.42171514 63.08886719 129.10522461 C63.10135246 128.0892495 63.10135246 128.0892495 63.11408997 127.05274963 C63.13805275 124.82831964 63.14694588 122.60418379 63.15356445 120.37963867 C63.16254263 118.82033202 63.17166467 117.2610262 63.18092346 115.70172119 C63.19737976 112.43694982 63.20510717 109.17228056 63.20800781 105.9074707 C63.21338212 101.74704911 63.25103606 97.58760279 63.29675198 93.4274559 C63.32666421 90.2067118 63.33373445 86.98619831 63.33473396 83.76532745 C63.33890979 82.23286736 63.35123681 80.70040488 63.37225151 79.16808319 C63.48401877 70.31236482 63.25874419 62.52105786 57.7824707 55.14526367 C49.77296451 47.38319685 41.64384143 46.85784139 30.93481445 46.83666992 C28.61515035 46.81152213 26.29548895 46.78612394 23.97583008 46.76049805 C20.33968741 46.73171591 16.70359142 46.70767937 13.06738281 46.68896484 C9.54379025 46.66730975 6.02072456 46.62788555 2.49731445 46.58666992 C1.41280502 46.58655411 0.32829559 46.58643829 -0.78907776 46.58631897 C-8.84092353 46.48081958 -14.24881935 44.79983099 -20.2175293 39.14526367 C-24.70643546 32.69810986 -25.87878796 26.85147041 -25.2175293 19.14526367 C-23.92409116 12.13482896 -19.96404865 8.12037889 -14.2175293 4.14526367 C-9.71146597 1.70931261 -5.13893284 0.02631108 0 0 Z " fill="#F09929" transform="translate(25.217529296875,3.854736328125)"/>
<path d="M0 0 C6.87633196 5.92474731 12.12626928 14.0494171 14 23 C14.09787952 24.62618644 14.14587685 26.25574397 14.15821838 27.88482666 C14.17290161 29.35713745 14.17290161 29.35713745 14.18788147 30.85919189 C14.19363693 31.92949646 14.1993924 32.99980103 14.20532227 34.10253906 C14.21522186 35.23453735 14.22512146 36.36653564 14.23532104 37.53283691 C14.26692597 41.27707828 14.29168963 45.02133234 14.31640625 48.765625 C14.33697663 51.36066011 14.35797313 53.95569187 14.37937927 56.55072021 C14.42894694 62.68461062 14.47421456 68.81851898 14.51740164 74.95245719 C14.56681539 81.93672816 14.62171815 88.9209526 14.67708123 95.90517855 C14.79082701 110.27007532 14.89768212 124.63501751 15 139 C15.99 139.33 16.98 139.66 18 140 C18.00358253 139.15573047 18.00358253 139.15573047 18.00723743 138.29440498 C18.06652083 124.5629198 18.14234151 110.8316103 18.23571491 97.10031319 C18.28037633 90.45977559 18.31964188 83.81934668 18.34643555 77.17871094 C18.37251042 70.76600577 18.41294307 64.35353493 18.46318626 57.94097519 C18.47982657 55.49869585 18.49135845 53.05637602 18.49761391 50.614048 C18.50728557 47.18401983 18.53538276 43.75458734 18.56762695 40.32470703 C18.56619186 39.32272781 18.56475677 38.3207486 18.5632782 37.28840637 C18.64982216 30.74683016 19.79403287 25.15753195 22 19 C22.33 19 22.66 19 23 19 C23.33 21.97 23.66 24.94 24 28 C23.01 27.67 22.02 27.34 21 27 C20.505 83.43 20.505 83.43 20 141 C18.35 141.33 16.7 141.66 15 142 C11.92259022 138.92259022 12.69139087 135.27596983 12.68115234 131.14404297 C12.67110672 130.22691528 12.6610611 129.3097876 12.65071106 128.36486816 C12.61974315 125.32398117 12.60280622 122.28318275 12.5859375 119.2421875 C12.56723679 117.1375349 12.54766422 115.03288987 12.5272522 112.92825317 C12.47580907 107.38149475 12.43624866 101.83471198 12.39910889 96.2878418 C12.35914543 90.63063475 12.30801825 84.97353003 12.2578125 79.31640625 C12.16090906 68.21100925 12.07655058 57.10555463 12 46 C9.87023424 50.86545074 9.87023424 50.86545074 8.125 55.875 C6.56933387 60.19629481 4.30594812 64.03940208 2 68 C1.34 68 0.68 68 0 68 C-0.80795953 70.84850937 -1.13272404 73.39598856 -1.15821838 76.35333252 C-1.1680072 77.21707489 -1.17779602 78.08081726 -1.18788147 78.97073364 C-1.19363693 79.91012787 -1.1993924 80.84952209 -1.20532227 81.81738281 C-1.21522186 82.81283112 -1.22512146 83.80827942 -1.23532104 84.83389282 C-1.26690395 88.1236127 -1.29168089 91.41334702 -1.31640625 94.703125 C-1.33697854 96.98427709 -1.35797509 99.26542539 -1.37937927 101.54656982 C-1.4345715 107.55034313 -1.4839934 113.55415068 -1.53222656 119.5579834 C-1.58246234 125.68451993 -1.63813758 131.81100674 -1.69335938 137.9375 C-1.80090613 149.95829086 -1.90235889 161.97912489 -2 174 C-4.07013232 170.89480152 -4.24843246 170.26048784 -4.23377991 166.74964905 C-4.23508408 165.88252792 -4.23638824 165.0154068 -4.23773193 164.12200928 C-4.22458954 162.69855194 -4.22458954 162.69855194 -4.21118164 161.24633789 C-4.2098674 160.24414719 -4.20855316 159.24195648 -4.2071991 158.20939636 C-4.20068602 154.88038857 -4.18022135 151.55160759 -4.16015625 148.22265625 C-4.15388133 145.89831288 -4.14864274 143.57396649 -4.14439392 141.24961853 C-4.1310605 135.10709794 -4.10664512 128.96467586 -4.07904053 122.82220459 C-4.03605803 113.05217255 -4.00592129 103.28211989 -3.9829998 93.51202202 C-3.97292282 90.12475944 -3.9558424 86.73758639 -3.93800354 83.35035706 C-3.91216511 77.23287373 -3.93794618 71.11718814 -4 65 C-4.00635845 64.03494915 -4.0127169 63.0698983 -4.01926804 62.07560349 C-4.04789565 59.31906699 -4.11221652 56.56586492 -4.18920898 53.81030273 C-4.19761983 52.59898603 -4.19761983 52.59898603 -4.2062006 51.36319828 C-4.4269729 45.61950172 -5.87709952 43.02285274 -10 39 C-13.92533048 37.03733476 -18.71067672 37.65859221 -23 38 C-27.31620246 39.70849681 -29.06339234 41.83129018 -31 46 C-31.44441669 49.34326179 -31.41692443 52.66300434 -31.40063477 56.03173828 C-31.40761383 57.0389241 -31.4145929 58.04610992 -31.42178345 59.08381653 C-31.44177281 62.41273354 -31.44126011 65.74134076 -31.44140625 69.0703125 C-31.45318148 71.39094882 -31.46654606 73.71157758 -31.48143005 76.03219604 C-31.51764513 82.14684463 -31.53782008 88.26142624 -31.55297852 94.37615967 C-31.57778103 104.1415123 -31.61771141 113.90671663 -31.67487907 123.67193222 C-31.69111751 127.07234973 -31.69497842 130.47262601 -31.69789124 133.87307739 C-31.70767742 135.97935217 -31.7179423 138.0856248 -31.72875977 140.19189453 C-31.72620682 141.12631882 -31.72365387 142.0607431 -31.72102356 143.02348328 C-31.79506658 152.68964661 -32.96322961 161.62363185 -38 170 C-38.35578125 170.60199219 -38.7115625 171.20398438 -39.078125 171.82421875 C-40.125 173.5 -40.125 173.5 -42 176 C-42.66 176 -43.32 176 -44 176 C-44 176.66 -44 177.32 -44 178 C-44.66 178 -45.32 178 -46 178 C-46 178.66 -46 179.32 -46 180 C-46.66 180 -47.32 180 -48 180 C-48 180.66 -48 181.32 -48 182 C-59.97797625 190.97723063 -72.45710805 192.16722653 -86.9375 192.09765625 C-88.05817871 192.0962413 -89.17885742 192.09482635 -90.33349609 192.09336853 C-93.88902533 192.08780139 -97.44449002 192.07525498 -101 192.0625 C-103.420572 192.05748075 -105.841145 192.05291859 -108.26171875 192.04882812 C-114.17450094 192.03784272 -120.08724585 192.02113752 -126 192 C-126 191.34 -126 190.68 -126 190 C-124.98292969 189.67128906 -124.98292969 189.67128906 -123.9453125 189.3359375 C-106.46029705 183.37843916 -92.00903334 171.59954251 -83.75 154.875 C-77.79140579 140.70410575 -76.41524889 127.68354038 -76.4609375 112.51953125 C-76.45099708 110.69022972 -76.43904338 108.86093816 -76.42520142 107.03166199 C-76.3931501 102.26103388 -76.38247578 97.4906348 -76.37835693 92.71990967 C-76.36953316 85.07771918 -76.33365741 77.43571379 -76.2861824 69.79367638 C-76.27376748 67.15223778 -76.27433952 64.51104444 -76.27645874 61.86958313 C-76.23858894 45.90952762 -74.81888892 30.21328391 -67 16 C-66.3286591 14.66901404 -65.66078654 13.33625722 -65 12 C-64.34 12 -63.68 12 -63 12 C-62.76023438 11.2678125 -62.52046875 10.535625 -62.2734375 9.78125 C-58.50295719 1.54633594 -49.93839753 -2.98073177 -41.859375 -6.125 C-27.11644559 -10.63649753 -12.85573783 -8.08025513 0 0 Z " fill="#EC6933" transform="translate(214,13)"/>
<path d="M0 0 C0.33 0 0.66 0 1 0 C1.33 32.67 1.66 65.34 2 99 C6.47702364 100.06537205 6.47702364 100.06537205 9 100 C9.2475 99.29875 9.495 98.5975 9.75 97.875 C11 95 11 95 13 92.25 C16.86595683 85.96782015 17.18247695 78.81533382 17.78515625 71.58789062 C18.93547191 58.26205075 21.43957471 45.49667035 24.5 32.5 C24.7959758 31.2418045 24.7959758 31.2418045 25.09793091 29.95819092 C26.20161892 25.29525613 27.33525427 20.64072819 28.50195312 15.99316406 C28.95828186 14.16695435 29.40167201 12.3375242 29.84375 10.5078125 C30.09125 9.52554688 30.33875 8.54328125 30.59375 7.53125 C30.79677734 6.71205078 30.99980469 5.89285156 31.20898438 5.04882812 C32.09299644 2.75912775 33.15564387 1.58925847 35 0 C34.67526703 0.73433258 34.35053406 1.46866516 34.01596069 2.22525024 C32.56185448 7.62790715 32.72502621 12.82459433 32.74462891 18.39599609 C32.74100845 19.64223251 32.737388 20.88846893 32.73365784 22.17247009 C32.72677116 24.87511297 32.72337117 27.57750628 32.72560501 30.28013229 C32.72844794 34.55910699 32.71404955 38.8379179 32.69662476 43.11685181 C32.64969165 55.28165233 32.6256622 67.44644103 32.61914062 79.61132812 C32.61538328 86.33632835 32.59730167 93.0611424 32.56404626 99.78606284 C32.5438956 104.03401349 32.54143035 108.28148195 32.55232644 112.52946067 C32.55555915 115.80145262 32.53281426 119.07328565 32.51416016 122.34521484 C32.52233261 123.51327164 32.53050507 124.68132843 32.53892517 125.88478088 C32.46967103 132.71911065 31.58906568 137.14716744 28 143 C27.34 143 26.68 143 26 143 C26 143.66 26 144.32 26 145 C19.13288402 150.4698368 12.5818139 151.5934233 4 151 C-3.57149836 149.21847097 -8.41354703 145.02790961 -13 139 C-14.16010063 136.67979874 -14.12812487 135.34518563 -14.13371277 132.76223755 C-14.13797775 131.87336853 -14.14224274 130.98449951 -14.14663696 130.06869507 C-14.14618378 129.09099152 -14.14573059 128.11328796 -14.14526367 127.10595703 C-14.14862228 126.07821167 -14.1519809 125.05046631 -14.15544128 123.99157715 C-14.16497183 120.58031011 -14.16689548 117.16909204 -14.16796875 113.7578125 C-14.17117998 111.39370707 -14.17454395 109.02960183 -14.17805481 106.66549683 C-14.18405143 101.70391377 -14.18589417 96.74234815 -14.18530273 91.78076172 C-14.18520111 85.41611268 -14.1988515 79.05157519 -14.21607494 72.68695259 C-14.22718179 67.80227137 -14.22922234 62.91761721 -14.22869301 58.03292465 C-14.22987518 55.6861317 -14.23431018 53.33933809 -14.24202538 50.99255753 C-14.25179818 47.7125691 -14.2489578 44.43282419 -14.24291992 41.15283203 C-14.24853943 40.17917694 -14.25415894 39.20552185 -14.25994873 38.20236206 C-14.25575424 37.30785339 -14.25155975 36.41334473 -14.24723816 35.49172974 C-14.24778293 34.7163341 -14.24832769 33.94093845 -14.24888897 33.14204597 C-13.96847293 30.72866445 -13.20015335 29.09576855 -12 27 C-11.34 27 -10.68 27 -10 27 C-9.731875 26.0925 -9.46375 25.185 -9.1875 24.25 C-8 21 -8 21 -6.5234375 19.09765625 C-4.85531995 16.8007867 -4.18883134 14.91375942 -3.4375 12.1875 C-3.19257813 11.31738281 -2.94765625 10.44726562 -2.6953125 9.55078125 C-2.46585938 8.70902344 -2.23640625 7.86726563 -2 7 C-1.60563154 5.62457914 -1.21001732 4.2495141 -0.8125 2.875 C-0.544375 1.92625 -0.27625 0.9775 0 0 Z " fill="#436A38" transform="translate(226,54)"/>
<path d="M0 0 C6.87633196 5.92474731 12.12626928 14.0494171 14 23 C14.09787952 24.62618644 14.14587685 26.25574397 14.15821838 27.88482666 C14.1680072 28.86636719 14.17779602 29.84790771 14.18788147 30.85919189 C14.19363693 31.92949646 14.1993924 32.99980103 14.20532227 34.10253906 C14.21522186 35.23453735 14.22512146 36.36653564 14.23532104 37.53283691 C14.26692597 41.27707828 14.29168963 45.02133234 14.31640625 48.765625 C14.33697663 51.36066011 14.35797313 53.95569187 14.37937927 56.55072021 C14.42894694 62.68461062 14.47421456 68.81851898 14.51740164 74.95245719 C14.56681539 81.93672816 14.62171815 88.9209526 14.67708123 95.90517855 C14.79082701 110.27007532 14.89768212 124.63501751 15 139 C15.99 139.33 16.98 139.66 18 140 C18.00238835 139.43715364 18.00477671 138.87430729 18.00723743 138.29440498 C18.06652083 124.5629198 18.14234151 110.8316103 18.23571491 97.10031319 C18.28037633 90.45977559 18.31964188 83.81934668 18.34643555 77.17871094 C18.37251042 70.76600577 18.41294307 64.35353493 18.46318626 57.94097519 C18.47982657 55.49869585 18.49135845 53.05637602 18.49761391 50.614048 C18.50728557 47.18401983 18.53538276 43.75458734 18.56762695 40.32470703 C18.56547432 38.8217382 18.56547432 38.8217382 18.5632782 37.28840637 C18.64982216 30.74683016 19.79403287 25.15753195 22 19 C22.33 19 22.66 19 23 19 C23.495 23.455 23.495 23.455 24 28 C22.515 27.505 22.515 27.505 21 27 C20.67 64.62 20.34 102.24 20 141 C18.35 141.33 16.7 141.66 15 142 C11.92259022 138.92259022 12.69139087 135.27596983 12.68115234 131.14404297 C12.67110672 130.22691528 12.6610611 129.3097876 12.65071106 128.36486816 C12.61974315 125.32398117 12.60280622 122.28318275 12.5859375 119.2421875 C12.56723679 117.1375349 12.54766422 115.03288987 12.5272522 112.92825317 C12.47580907 107.38149475 12.43624866 101.83471198 12.39910889 96.2878418 C12.35914543 90.63063475 12.30801825 84.97353003 12.2578125 79.31640625 C12.16090906 68.21100925 12.07655058 57.10555463 12 46 C9.87023424 50.86545074 9.87023424 50.86545074 8.125 55.875 C6.56933387 60.19629481 4.30594812 64.03940208 2 68 C1.34 68 0.68 68 0 68 C-0.80795953 70.84850937 -1.13272404 73.39598856 -1.15821838 76.35333252 C-1.1680072 77.21707489 -1.17779602 78.08081726 -1.18788147 78.97073364 C-1.19363693 79.91012787 -1.1993924 80.84952209 -1.20532227 81.81738281 C-1.21522186 82.81283112 -1.22512146 83.80827942 -1.23532104 84.83389282 C-1.26690395 88.1236127 -1.29168089 91.41334702 -1.31640625 94.703125 C-1.33697854 96.98427709 -1.35797509 99.26542539 -1.37937927 101.54656982 C-1.4345715 107.55034313 -1.4839934 113.55415068 -1.53222656 119.5579834 C-1.58246234 125.68451993 -1.63813758 131.81100674 -1.69335938 137.9375 C-1.80090613 149.95829086 -1.90235889 161.97912489 -2 174 C-4.07013232 170.89480152 -4.24843246 170.26048784 -4.23377991 166.74964905 C-4.23508408 165.88252792 -4.23638824 165.0154068 -4.23773193 164.12200928 C-4.22458954 162.69855194 -4.22458954 162.69855194 -4.21118164 161.24633789 C-4.2098674 160.24414719 -4.20855316 159.24195648 -4.2071991 158.20939636 C-4.20068602 154.88038857 -4.18022135 151.55160759 -4.16015625 148.22265625 C-4.15388133 145.89831288 -4.14864274 143.57396649 -4.14439392 141.24961853 C-4.1310605 135.10709794 -4.10664512 128.96467586 -4.07904053 122.82220459 C-4.03605803 113.05217255 -4.00592129 103.28211989 -3.9829998 93.51202202 C-3.97292282 90.12475944 -3.9558424 86.73758639 -3.93800354 83.35035706 C-3.91216316 77.23287491 -3.93785235 71.11718655 -4 65 C-4.00635845 64.04026653 -4.0127169 63.08053307 -4.01926804 62.09171677 C-4.04792544 59.35064027 -4.11224894 56.61290121 -4.18920898 53.87280273 C-4.19761983 52.67405439 -4.19761983 52.67405439 -4.2062006 51.45108891 C-4.43431283 45.54182628 -6.22644496 42.53790921 -10 38 C-7.50638429 39.20381448 -5.31856917 40.45428722 -3 42 C-3 42.66 -3 43.32 -3 44 C-1.68 44 -0.36 44 1 44 C1.33 42.35 1.66 40.7 2 39 C1.01 39 0.02 39 -1 39 C-1 37.35 -1 35.7 -1 34 C-1.556875 33.773125 -2.11375 33.54625 -2.6875 33.3125 C-5 32 -5 32 -7.375 29.5 C-12.80382385 24.32969157 -19.26045319 24.55653114 -26.40234375 24.69921875 C-36.8322815 25.57121137 -44.07406114 30.26175967 -51 38 C-51.33 38.99 -51.66 39.98 -52 41 C-52.58910156 41.55945312 -53.17820313 42.11890625 -53.78515625 42.6953125 C-56.72872598 45.75828629 -58.48735955 49.12472991 -60.4375 52.875 C-60.83219482 53.63095459 -61.22688965 54.38690918 -61.63354492 55.16577148 C-70.99806003 73.49217186 -74.58313185 91.67313139 -74.75 112 C-74.77824753 113.75784065 -74.80818669 115.51565495 -74.83984375 117.2734375 C-74.91264956 121.51557583 -74.96285168 125.75740581 -75 130 C-75.33 130 -75.66 130 -76 130 C-76.04655889 119.53306631 -76.08198801 109.06615769 -76.10362434 98.59914112 C-76.11401425 93.73768744 -76.12808478 88.87630517 -76.15087891 84.01489258 C-76.17277963 79.31403092 -76.18460457 74.6132375 -76.18975449 69.91232872 C-76.19341957 68.12839371 -76.20057551 66.34446198 -76.21146011 64.56055641 C-76.3102029 47.69003936 -75.29463973 31.07811027 -67 16 C-66.3286591 14.66901404 -65.66078654 13.33625722 -65 12 C-64.34 12 -63.68 12 -63 12 C-62.76023438 11.2678125 -62.52046875 10.535625 -62.2734375 9.78125 C-58.50295719 1.54633594 -49.93839753 -2.98073177 -41.859375 -6.125 C-27.11644559 -10.63649753 -12.85573783 -8.08025513 0 0 Z " fill="#F0952B" transform="translate(214,13)"/>
<path d="M0 0 C1.8125 0.0625 1.8125 0.0625 4 1 C8.87885613 10.38241563 10.11502441 20.35451777 10.14526367 30.80200195 C10.14862228 31.53652588 10.1519809 32.2710498 10.15544128 33.02783203 C10.16486007 35.4313328 10.16688978 37.83476323 10.16796875 40.23828125 C10.17118762 41.92685473 10.17455215 43.61542794 10.17805481 45.30400085 C10.1840234 48.83507941 10.18589705 52.36613356 10.18530273 55.8972168 C10.18520124 60.39567382 10.19885064 64.89397257 10.21607494 69.39239216 C10.22725754 72.87821657 10.22922003 76.36400347 10.22869301 79.84984398 C10.22986381 81.50703667 10.23423433 83.16423062 10.24202538 84.82140541 C10.33493416 106.62326715 6.12196191 125.60952411 -9.4375 141.875 C-13.6365973 145.85196076 -17.99777859 149.10608665 -23 152 C-23.928125 152.53753906 -24.85625 153.07507813 -25.8125 153.62890625 C-32.79641047 157.40276412 -39.12863202 159.22130686 -47 160 C-47.77174561 160.08612549 -48.54349121 160.17225098 -49.33862305 160.26098633 C-56.80120261 161.03616901 -64.18990283 161.11722699 -71.6875 161.0625 C-72.87794922 161.05798828 -74.06839844 161.05347656 -75.29492188 161.04882812 C-78.19666936 161.03717452 -81.09830626 161.02081559 -84 161 C-84 160.67 -84 160.34 -84 160 C-83.09378906 159.75765625 -82.18757813 159.5153125 -81.25390625 159.265625 C-71.16273455 156.48921797 -61.48138175 153.36103631 -53 147 C-52.67 146.34 -52.34 145.68 -52 145 C-51.34 145 -50.68 145 -50 145 C-50 144.34 -50 143.68 -50 143 C-46.53846154 140 -46.53846154 140 -44 140 C-44 139.34 -44 138.68 -44 138 C-43.34 138 -42.68 138 -42 138 C-41.71125 137.236875 -41.4225 136.47375 -41.125 135.6875 C-40 133 -40 133 -38 130 C-37.34 130 -36.68 130 -36 130 C-35.505 128.02 -35.505 128.02 -35 126 C-34.34 126 -33.68 126 -33 126 C-32.73058594 125.28457031 -32.46117187 124.56914062 -32.18359375 123.83203125 C-30.98988565 120.97579901 -29.59215958 118.37705412 -28.0625 115.6875 C-25.57886297 111.20483805 -23.67103305 106.83720093 -22 102 C-21.67 101.34 -21.34 100.68 -21 100 C-20.34 100 -19.68 100 -19 100 C-18.97421875 99.21496094 -18.9484375 98.42992187 -18.921875 97.62109375 C-18.61292681 91.89853077 -18.30636156 87.76022991 -15.04296875 82.8828125 C-12.70465313 78.66158355 -12.03465054 73.67261534 -11 69 C-10.71898438 67.8140625 -10.43796875 66.628125 -10.1484375 65.40625 C-8.63051402 59.7634848 -8.63051402 59.7634848 -8 54 C-7.34 54 -6.68 54 -6 54 C-6.04125 53.071875 -6.0825 52.14375 -6.125 51.1875 C-6.125 48.11704447 -5.73216808 45.31987938 -5.125 42.3125 C-2.7189292 29.92379503 -1.97149925 17.1382523 -1.24609375 4.5546875 C-1 2 -1 2 0 0 Z " fill="#EA6636" transform="translate(124,43)"/>
<path d="M0 0 C1.20804794 0.00565979 2.41609589 0.01131958 3.66075134 0.01715088 C7.49169761 0.03941147 11.32168361 0.08959126 15.15234375 0.140625 C17.76105413 0.16070321 20.36977928 0.17895166 22.97851562 0.1953125 C29.34928195 0.23924258 35.71949422 0.30605202 42.08984375 0.390625 C39.30227678 3.17819197 36.04793396 3.60069553 32.33984375 4.578125 C17.02117146 8.87955496 1.45079556 16.1627553 -6.91015625 30.390625 C-9.5929132 35.646507 -12.0934721 40.93447789 -13.95703125 46.5390625 C-14.91015625 49.390625 -14.91015625 49.390625 -15.88647461 51.23730469 C-17.05828466 53.70221398 -17.64252632 56.03277065 -18.2421875 58.6953125 C-18.48090576 59.74195068 -18.71962402 60.78858887 -18.96557617 61.86694336 C-19.34033081 63.54929077 -19.34033081 63.54929077 -19.72265625 65.265625 C-20.25619261 67.63939437 -20.79005161 70.01309124 -21.32421875 72.38671875 C-21.59008789 73.57249512 -21.85595703 74.75827148 -22.12988281 75.97998047 C-22.82374236 79.01290223 -23.55389887 82.0325431 -24.30859375 85.05078125 C-27.09545745 96.35490634 -28.81946269 107.52303027 -29.92260742 119.11889648 C-31.55116222 136.14794284 -31.55116222 136.14794284 -36.47265625 143.453125 C-37.40271484 144.86271484 -37.40271484 144.86271484 -38.3515625 146.30078125 C-38.86589844 146.99042969 -39.38023437 147.68007812 -39.91015625 148.390625 C-40.24015625 148.390625 -40.57015625 148.390625 -40.91015625 148.390625 C-40.93353732 134.4128021 -40.95109448 120.43498224 -40.96196842 106.45714378 C-40.96718731 99.96670224 -40.97426699 93.47627383 -40.9855957 86.98583984 C-40.9964598 80.72240698 -41.00244058 74.45898675 -41.00503349 68.1955452 C-41.00688138 65.80574978 -41.01048979 63.41595505 -41.01588631 61.02616501 C-41.02314341 57.67937474 -41.02414521 54.33263671 -41.02368164 50.98583984 C-41.02907455 49.50337769 -41.02907455 49.50337769 -41.03457642 47.9909668 C-41.02760534 43.34087539 -40.87453322 38.96457156 -39.91015625 34.390625 C-39.25015625 34.390625 -38.59015625 34.390625 -37.91015625 34.390625 C-37.99136719 33.72417969 -38.07257813 33.05773438 -38.15625 32.37109375 C-38.73725728 23.89313044 -36.24644911 18.87672682 -30.91015625 12.390625 C-21.77806768 2.51272157 -13.26210735 -0.2367254 0 0 Z " fill="#203C24" transform="translate(274.91015625,5.609375)"/>
<path d="M0 0 C1.96728963 3.73649821 2.99720029 7.5052676 3.98828125 11.58984375 C4.36895576 13.11267643 4.74982161 14.63546129 5.13085938 16.15820312 C5.71943869 18.53320218 6.30546624 20.90877659 6.88745117 23.28540039 C11.20601224 40.86033902 16.34435289 59.65725617 29.74609375 72.69921875 C31 74 31 74 31 76 C31.515625 76.226875 32.03125 76.45375 32.5625 76.6875 C33.366875 77.120625 34.17125 77.55375 35 78 C35.57298828 78.26111572 36.14597656 78.52223145 36.73632812 78.79125977 C38.93100273 80.00254245 40.37993468 81.0725258 42 83 C43.09471847 87.09321179 43.02318149 91.03447081 42.9375 95.25 C42.97294922 96.34441406 43.00839844 97.43882812 43.04492188 98.56640625 C43.00458552 106.05104059 41.36043934 109.95769441 36.09545898 115.27807617 C30.78287746 119.64364037 25.28350939 120.53709713 18.51953125 120.27734375 C12.30384931 119.5931369 7.69927738 118.23667415 3.5 113.4375 C0.87863061 110.05156454 -0.12524618 107.96220913 -0.12025452 103.65939331 C-0.12162918 102.74791534 -0.12300385 101.83643738 -0.12442017 100.89733887 C-0.12082489 99.89464966 -0.11722961 98.89196045 -0.11352539 97.85888672 C-0.11367142 96.80520905 -0.11381744 95.75153137 -0.1139679 94.66592407 C-0.1132692 91.1704912 -0.10547881 87.6751111 -0.09765625 84.1796875 C-0.09579192 81.76115956 -0.09436809 79.34263124 -0.09336853 76.92410278 C-0.08954456 70.54871585 -0.07971529 64.17335159 -0.06866455 57.79797363 C-0.05844785 51.29630846 -0.05387035 44.79463963 -0.04882812 38.29296875 C-0.03809293 25.52863614 -0.0212093 12.76431928 0 0 Z " fill="#223E26" transform="translate(289,85)"/>
<path d="M0 0 C1.65125885 0.0001133 1.65125885 0.0001133 3.33587646 0.00022888 C4.51828918 0.00539017 5.7007019 0.01055145 6.91894531 0.01586914 C8.13406799 0.01728409 9.34919067 0.01869904 10.60113525 0.02015686 C14.48313862 0.02575551 18.36508437 0.0383078 22.24707031 0.05102539 C24.8785799 0.05604056 27.51009038 0.06060344 30.14160156 0.06469727 C36.59344415 0.0757245 43.04525311 0.09246131 49.49707031 0.11352539 C48.37255304 3.08546389 47.2741324 5.44793226 45.49707031 8.11352539 C44.83707031 8.11352539 44.17707031 8.11352539 43.49707031 8.11352539 C42.83707031 9.76352539 42.17707031 11.41352539 41.49707031 13.11352539 C40.83707031 13.11352539 40.17707031 13.11352539 39.49707031 13.11352539 C39.49707031 13.77352539 39.49707031 14.43352539 39.49707031 15.11352539 C38.83707031 15.11352539 38.17707031 15.11352539 37.49707031 15.11352539 C37.22507813 15.7077832 36.95308594 16.30204102 36.67285156 16.91430664 C30.81257208 27.8755603 15.48885433 36.19345046 4.24707031 40.30102539 C-0.96764098 41.4308795 -6.18481407 41.78168895 -11.50292969 42.11352539 C-11.83292969 41.45352539 -12.16292969 40.79352539 -12.50292969 40.11352539 C-13.59605469 39.86602539 -14.68917969 39.61852539 -15.81542969 39.36352539 C-20.36228074 37.82221995 -21.35482528 36.32711481 -23.50292969 32.11352539 C-25.75044867 24.8090887 -24.48801861 17.96243071 -21.50292969 11.11352539 C-18.44641196 6.13253354 -13.34030835 2.31227062 -7.72186279 0.55714417 C-5.0997644 0.03292283 -2.67492443 -0.00613515 0 0 Z " fill="#EC6130" transform="translate(24.5029296875,158.886474609375)"/>
<path d="M0 0 C6.09046996 7.30856395 7.79933218 13.59694691 7 23 C5.30184091 28.36260764 2.76767958 31.94249891 -1 36 C-3.95664519 37.4783226 -6.74229737 37.06032783 -10 37 C-10 37.66 -10 38.32 -10 39 C-23.2 39 -36.4 39 -50 39 C-48.87462687 27.74626866 -48.87462687 27.74626866 -46.5 22.5 C-46.0565625 21.4996875 -45.613125 20.499375 -45.15625 19.46875 C-44.45475499 17.97096336 -43.73965669 16.47931337 -43 15 C-42.34 15 -41.68 15 -41 15 C-40.74476563 14.25878906 -40.48953125 13.51757812 -40.2265625 12.75390625 C-37.28780524 6.15574106 -31.2918389 1.65512412 -24.859375 -1.30859375 C-17.08356916 -4.20001735 -7.04914324 -4.65243454 0 0 Z " fill="#2E4E2C" transform="translate(381,10)"/>
<path d="M0 0 C0.33 0 0.66 0 1 0 C1 32.01 1 64.02 1 97 C-4.62687348 92.49850121 -4.62687348 92.49850121 -6.16796875 89.50390625 C-6.50376953 88.86259766 -6.83957031 88.22128906 -7.18554688 87.56054688 C-7.51619141 86.90119141 -7.84683594 86.24183594 -8.1875 85.5625 C-8.52974609 84.90701172 -8.87199219 84.25152344 -9.22460938 83.57617188 C-10.17924711 81.72806736 -11.11685203 79.88338088 -12 78 C-12.36101807 77.29681641 -12.72203613 76.59363281 -13.09399414 75.86914062 C-14.40159759 71.7282202 -14.28547953 67.78224124 -14.265625 63.46484375 C-14.26753845 62.5491713 -14.2694519 61.63349884 -14.27142334 60.69007874 C-14.27278114 58.75944747 -14.26911306 56.82880695 -14.26074219 54.89819336 C-14.25002464 51.94429032 -14.26065757 48.99099373 -14.2734375 46.03710938 C-14.27211607 44.15885283 -14.26955403 42.28059665 -14.265625 40.40234375 C-14.26967346 39.51997543 -14.27372192 38.63760712 -14.27789307 37.72850037 C-14.27158875 36.90406937 -14.26528442 36.07963837 -14.25878906 35.23022461 C-14.25719788 34.50806259 -14.25560669 33.78590057 -14.25396729 33.04185486 C-13.96109055 30.68717445 -13.16328032 29.05219493 -12 27 C-11.34 27 -10.68 27 -10 27 C-9.731875 26.0925 -9.46375 25.185 -9.1875 24.25 C-8 21 -8 21 -6.5234375 19.09765625 C-4.85531995 16.8007867 -4.18883134 14.91375942 -3.4375 12.1875 C-3.19257813 11.31738281 -2.94765625 10.44726562 -2.6953125 9.55078125 C-2.46585938 8.70902344 -2.23640625 7.86726563 -2 7 C-1.60563154 5.62457914 -1.21001732 4.2495141 -0.8125 2.875 C-0.544375 1.92625 -0.27625 0.9775 0 0 Z " fill="#53813F" transform="translate(226,54)"/>
<path d="M0 0 C0.33 0 0.66 0 1 0 C1 2.31 1 4.62 1 7 C0.34 7 -0.32 7 -1 7 C-1.84757725 11.40605632 -2.13475983 15.57785895 -2.125 20.0625 C-2.12757813 21.24972656 -2.13015625 22.43695313 -2.1328125 23.66015625 C-2.01648082 26.58555594 -1.61628231 29.15151403 -1 32 C-0.95977609 34.3329866 -0.95679753 36.66706666 -1 39 C-1 39.99 -1 40.98 -1 42 C1.97148323 38.64509957 3.2679078 36.3925532 4 32 C4.66 31.67 5.32 31.34 6 31 C6.84228734 28.7068617 7.46932939 26.38505043 8.12109375 24.03125 C8.41113281 23.3609375 8.70117188 22.690625 9 22 C9.99 21.67 10.98 21.34 12 21 C12.33 20.34 12.66 19.68 13 19 C13.66 19.33 14.32 19.66 15 20 C14.58488159 20.75337646 14.58488159 20.75337646 14.16137695 21.52197266 C2.15678309 43.44253594 -4.5443632 63.95056802 -4.75 89 C-4.77824753 90.75784065 -4.80818669 92.51565495 -4.83984375 94.2734375 C-4.91264956 98.51557583 -4.96285168 102.75740581 -5 107 C-5.33 107 -5.66 107 -6 107 C-6.04655889 96.53306631 -6.08198801 86.06615769 -6.10362434 75.59914112 C-6.11401425 70.73768744 -6.12808478 65.87630517 -6.15087891 61.01489258 C-6.17277963 56.31403092 -6.18460457 51.6132375 -6.18975449 46.91232872 C-6.19341957 45.12839371 -6.20057551 43.34446198 -6.21146011 41.56055641 C-6.29292903 27.64133406 -5.45282824 14.33303999 -1 1 C-0.67 0.67 -0.34 0.34 0 0 Z " fill="#F8C120" transform="translate(144,36)"/>
<path d="M0 0 C0.84906418 -0.00637985 1.69812836 -0.0127597 2.57292175 -0.01933289 C3.49156509 -0.02044571 4.41020844 -0.02155853 5.35668945 -0.02270508 C6.31331985 -0.02603348 7.26995026 -0.02936188 8.25556946 -0.03279114 C10.2890271 -0.03786025 12.32249308 -0.04019947 14.35595703 -0.04003906 C17.41298979 -0.04219612 20.46964387 -0.06026908 23.52661133 -0.0793457 C39.6117961 -0.12693841 54.49116552 0.75141287 69.7824707 6.14526367 C66.50123839 7.23900778 65.48908886 7.03638125 62.2199707 6.27026367 C57.75104427 5.29248094 53.37156914 4.74473491 48.8137207 4.39135742 C46.7824707 4.14526367 46.7824707 4.14526367 44.7824707 3.14526367 C43.23090445 3.05025864 41.67532113 3.01731734 40.12084961 3.01586914 C39.15289459 3.01271698 38.18493958 3.00956482 37.18765259 3.00631714 C36.13870819 3.00834137 35.08976379 3.0103656 34.0090332 3.01245117 C32.93374359 3.01149445 31.85845398 3.01053772 30.75057983 3.009552 C28.47247255 3.00887052 26.19436333 3.01072258 23.91625977 3.01489258 C20.42891058 3.02023085 16.94169081 3.01495186 13.4543457 3.00854492 C11.24340792 3.00920591 9.03247021 3.01048751 6.8215332 3.01245117 C5.2541893 3.00941483 5.2541893 3.00941483 3.65518188 3.00631714 C2.19379288 3.01104538 2.19379288 3.01104538 0.70288086 3.01586914 C-0.15268402 3.01666473 -1.0082489 3.01746033 -1.88973999 3.01828003 C-4.1848403 3.14348045 -6.07072455 3.31415939 -8.2175293 4.14526367 C-8.5475293 5.13526367 -8.8775293 6.12526367 -9.2175293 7.14526367 C-9.2175293 6.48526367 -9.2175293 5.82526367 -9.2175293 5.14526367 C-14.27529271 6.87494098 -14.27529271 6.87494098 -18.0300293 10.45776367 C-18.4219043 11.34463867 -18.8137793 12.23151367 -19.2175293 13.14526367 C-19.6300293 14.03213867 -20.0425293 14.91901367 -20.4675293 15.83276367 C-21.91984805 22.24717148 -20.83867364 29.13205019 -18.2175293 35.14526367 C-17.5575293 35.47526367 -16.8975293 35.80526367 -16.2175293 36.14526367 C-16.2175293 37.79526367 -16.2175293 39.44526367 -16.2175293 41.14526367 C-20.19450721 39.86694934 -21.46861537 37.46401635 -23.38549805 33.99682617 C-26.05797514 28.04962363 -26.09861018 21.21818401 -24.2175293 15.02026367 C-21.66614742 8.99081877 -16.29369136 4.85827439 -10.4050293 2.27026367 C-6.74742044 0.9793429 -3.86390512 0.019783 0 0 Z " fill="#F9E07C" transform="translate(25.217529296875,3.854736328125)"/>
<path d="M0 0 C2.49361571 1.20381448 4.68143083 2.45428722 7 4 C7 4.66 7 5.32 7 6 C7.66 6 8.32 6 9 6 C10.125 9.75 10.125 9.75 9 12 C8.89537351 13.64686569 8.85344931 15.29788397 8.84178162 16.94802856 C8.82709839 18.51718521 8.82709839 18.51718521 8.81211853 20.11804199 C8.80636307 21.27034302 8.8006076 22.42264404 8.79467773 23.60986328 C8.77982834 25.42446548 8.77982834 25.42446548 8.76467896 27.27572632 C8.73845695 30.59781077 8.71660908 33.91987074 8.69667697 37.24199533 C8.67483264 40.71204643 8.64743637 44.1820535 8.62062073 47.65206909 C8.57067279 54.22518195 8.52574178 60.79831921 8.48259836 67.37147987 C8.43324392 74.85387964 8.37831915 82.33623524 8.32291877 89.81859231 C8.20906649 105.21235407 8.10223454 120.60615643 8 136 C5.92986768 132.89480152 5.75156754 132.26048784 5.76622009 128.74964905 C5.76491592 127.88252792 5.76361176 127.0154068 5.76226807 126.12200928 C5.77102966 125.17303772 5.77979126 124.22406616 5.78881836 123.24633789 C5.7901326 122.24414719 5.79144684 121.24195648 5.7928009 120.20939636 C5.79931398 116.88038857 5.81977865 113.55160759 5.83984375 110.22265625 C5.84611867 107.89831288 5.85135726 105.57396649 5.85560608 103.24961853 C5.8689395 97.10709794 5.89335488 90.96467586 5.92095947 84.82220459 C5.96394197 75.05217255 5.99407871 65.28211989 6.0170002 55.51202202 C6.02707718 52.12475944 6.0441576 48.73758639 6.06199646 45.35035706 C6.08783684 39.23287491 6.06214765 33.11718655 6 27 C5.99364155 26.04026653 5.9872831 25.08053307 5.98073196 24.09171677 C5.95207456 21.35064027 5.88775106 18.61290121 5.81079102 15.87280273 C5.80518378 15.07363717 5.79957655 14.27447161 5.7937994 13.45108891 C5.56568717 7.54182628 3.77355504 4.53790921 0 0 Z " fill="#CCD1CB" transform="translate(204,51)"/>
<path d="M0 0 C1.78916587 3.08580346 2.25540841 5.33289561 2.2784729 8.88482666 C2.29521812 10.35713745 2.29521812 10.35713745 2.31230164 11.85919189 C2.31446182 12.92949646 2.31662201 13.99980103 2.31884766 15.10253906 C2.32889328 16.23453735 2.3389389 17.36653564 2.34928894 18.53283691 C2.38019695 22.27709441 2.39717748 26.02128016 2.4140625 29.765625 C2.43276799 32.36066305 2.45234093 34.95569498 2.4727478 37.55072021 C2.51888651 43.68460643 2.55627127 49.81848886 2.58942068 55.95245719 C2.62765355 62.93675479 2.67706063 69.92095938 2.72740483 76.90517855 C2.83070055 91.27004887 2.91996861 105.63498217 3 120 C3.99 120.33 4.98 120.66 6 121 C6.00358253 120.15573047 6.00358253 120.15573047 6.00723743 119.29440498 C6.06652083 105.5629198 6.14234151 91.8316103 6.23571491 78.10031319 C6.28037633 71.45977559 6.31964188 64.81934668 6.34643555 58.17871094 C6.37251042 51.76600577 6.41294307 45.35353493 6.46318626 38.94097519 C6.47982657 36.49869585 6.49135845 34.05637602 6.49761391 31.614048 C6.50728557 28.18401983 6.53538276 24.75458734 6.56762695 21.32470703 C6.56619186 20.32272781 6.56475677 19.3207486 6.5632782 18.28840637 C6.64982216 11.74683016 7.79403287 6.15753195 10 0 C10.33 0 10.66 0 11 0 C11.33 2.97 11.66 5.94 12 9 C11.01 8.67 10.02 8.34 9 8 C8.67 45.62 8.34 83.24 8 122 C5.525 122.495 5.525 122.495 3 123 C0.48243397 120.48243397 0.74316615 119.64975019 0.7215271 116.16586304 C0.71036362 115.14500107 0.69920013 114.1241391 0.68769836 113.07234192 C0.68553818 111.94809311 0.68337799 110.8238443 0.68115234 109.66552734 C0.67110672 108.48505325 0.6610611 107.30457916 0.65071106 106.08833313 C0.62506867 102.84681116 0.60824421 99.60538499 0.59528303 96.36379194 C0.5796784 92.97779798 0.55287976 89.5918934 0.5272522 86.20596313 C0.48041698 79.79223161 0.44369592 73.37848335 0.41057932 66.96466792 C0.37239135 59.66361707 0.32297255 52.36265589 0.27259517 45.06168056 C0.16920483 30.0411866 0.07996762 15.02063828 0 0 Z " fill="#BCC4B0" transform="translate(226,32)"/>
<path d="M0 0 C0.33 0.66 0.66 1.32 1 2 C0.69581335 2.59143169 0.3916267 3.18286339 0.07822227 3.79221725 C-1.23303817 6.47717217 -1.25048922 8.34323567 -1.2515564 11.32452393 C-1.25963066 12.9435688 -1.25963066 12.9435688 -1.26786804 14.59532166 C-1.26374405 15.77461746 -1.25962006 16.95391327 -1.25537109 18.16894531 C-1.26080177 20.03786186 -1.26080177 20.03786186 -1.26634216 21.9445343 C-1.2732405 24.65266868 -1.27662429 27.36055441 -1.27439499 30.06867218 C-1.27155823 34.35588808 -1.28592845 38.64293965 -1.30337524 42.93011475 C-1.35036411 55.1205396 -1.37433319 67.31095345 -1.38085938 79.50146484 C-1.38461685 86.23597246 -1.40270247 92.9702942 -1.43595374 99.70472217 C-1.4561117 103.96103421 -1.4585656 108.21686499 -1.44767356 112.47320509 C-1.44444059 115.75336927 -1.4671871 119.03337497 -1.48583984 122.31347656 C-1.47766739 123.48467545 -1.46949493 124.65587433 -1.46107483 125.86256409 C-1.53022635 132.7049006 -2.4049539 137.1410388 -6 143 C-6.66 143 -7.32 143 -8 143 C-8 143.66 -8 144.32 -8 145 C-8.99 145.33 -9.98 145.66 -11 146 C-11.33 144.68 -11.66 143.36 -12 142 C-11.34 142 -10.68 142 -10 142 C-9.731875 141.236875 -9.46375 140.47375 -9.1875 139.6875 C-8.04865495 137.11011382 -7.18583329 135.73045136 -5 134 C-4.34 134 -3.68 134 -3 134 C-3.00276538 133.3397775 -3.00553076 132.679555 -3.00837994 131.99932575 C-3.07463911 115.93307778 -3.12428022 99.86687734 -3.15543652 83.80052662 C-3.17090403 76.03094894 -3.19199127 68.26146249 -3.22631836 60.49194336 C-3.25622433 53.71985952 -3.27557585 46.94784173 -3.28226548 40.17569369 C-3.28617574 36.59002071 -3.29536278 33.00453673 -3.31719017 29.41892433 C-3.34136217 25.41567228 -3.34196923 21.41274861 -3.34057617 17.40942383 C-3.351362 16.22115494 -3.36214783 15.03288605 -3.3732605 13.80860901 C-3.36913651 12.71630981 -3.36501251 11.62401062 -3.36076355 10.49861145 C-3.36352893 9.55193006 -3.36629431 8.60524866 -3.36914349 7.62987995 C-2.93034957 4.50379111 -1.76993564 2.5832153 0 0 Z " fill="#BCCEB5" transform="translate(260,54)"/>
<path d="M0 0 C0.33 0 0.66 0 1 0 C1 2.31 1 4.62 1 7 C0.34 7 -0.32 7 -1 7 C-1.84757725 11.40605632 -2.13475983 15.57785895 -2.125 20.0625 C-2.12757813 21.24972656 -2.13015625 22.43695313 -2.1328125 23.66015625 C-2.01668682 26.58037565 -1.63792319 29.15972295 -1 32 C-1 32.66 -1 33.32 -1 34 C-2.98 34.495 -2.98 34.495 -5 35 C-5 58.76 -5 82.52 -5 107 C-5.33 107 -5.66 107 -6 107 C-6.04655889 96.53306631 -6.08198801 86.06615769 -6.10362434 75.59914112 C-6.11401425 70.73768744 -6.12808478 65.87630517 -6.15087891 61.01489258 C-6.17277963 56.31403092 -6.18460457 51.6132375 -6.18975449 46.91232872 C-6.19341957 45.12839371 -6.20057551 43.34446198 -6.21146011 41.56055641 C-6.29292903 27.64133406 -5.45282824 14.33303999 -1 1 C-0.67 0.67 -0.34 0.34 0 0 Z " fill="#F6E1C7" transform="translate(144,36)"/>
<path d="M0 0 C1.27359627 -0.00945648 1.27359627 -0.00945648 2.57292175 -0.019104 C3.49156509 -0.01505554 4.41020844 -0.01100708 5.35668945 -0.00683594 C6.31331985 -0.00874939 7.26995026 -0.01066284 8.25556946 -0.01263428 C10.28903464 -0.01399706 12.3225085 -0.01029416 14.35595703 -0.00195312 C17.41305137 0.00859271 20.46953721 -0.00176507 23.52661133 -0.01464844 C39.59485159 -0.02727181 54.51006984 0.87160656 69.7824707 6.25878906 C66.50123839 7.35253317 65.48908886 7.14990664 62.2199707 6.38378906 C57.75104427 5.40600633 53.37156914 4.8582603 48.8137207 4.50488281 C46.7824707 4.25878906 46.7824707 4.25878906 44.7824707 3.25878906 C43.11847788 3.1399095 41.44997795 3.08166962 39.78198242 3.0534668 C38.74105438 3.03352158 37.70012634 3.01357635 36.62765503 2.99302673 C35.50054108 2.97631424 34.37342712 2.95960175 33.2121582 2.94238281 C32.06079376 2.92160172 30.90942932 2.90082062 29.72317505 2.87940979 C26.0346693 2.81387241 22.34609067 2.75500978 18.6574707 2.69628906 C16.16136933 2.65310783 13.6652754 2.60949368 11.16918945 2.56542969 C5.0403609 2.45818675 -1.08854063 2.35642817 -7.2175293 2.25878906 C-4.13208269 0.20182466 -3.48611946 0.00745074 0 0 Z " fill="#F6E1BF" transform="translate(25.217529296875,3.7412109375)"/>
<path d="M0 0 C1.10131256 0.0028299 2.20262512 0.00565979 3.33731079 0.00857544 C6.84217358 0.01973772 10.34677742 0.04483539 13.8515625 0.0703125 C16.23306922 0.08034739 18.61457995 0.08947235 20.99609375 0.09765625 C26.82300447 0.11966413 32.64976498 0.15310251 38.4765625 0.1953125 C34.6035308 2.77733363 31.31698488 2.52835506 26.8203125 2.57421875 C25.96280396 2.59121323 25.10529541 2.6082077 24.22180176 2.62571716 C21.47346419 2.67885156 18.72513745 2.71906289 15.9765625 2.7578125 C-3.12890561 2.25418492 -3.12890561 2.25418492 -21.5234375 6.1953125 C-15.58379519 -0.65812094 -8.43010441 -0.08188445 0 0 Z " fill="#ECBBA9" transform="translate(30.5234375,158.8046875)"/>
<path d="M0 0 C2.44989787 1.14838963 4.32638335 1.08603426 7 0.9375 C7 2.2575 7 3.5775 7 4.9375 C7.99 5.2675 8.98 5.5975 10 5.9375 C10.495 8.9075 10.495 8.9075 11 11.9375 C10.34 11.215625 9.68 10.49375 9 9.75 C2.72364097 3.49147153 -3.52206293 0.88237971 -12.34106445 0.73217773 C-13.3817659 0.71223251 -14.42246735 0.69228729 -15.4947052 0.67173767 C-16.6063353 0.65502518 -17.71796539 0.63831268 -18.86328125 0.62109375 C-20.01040085 0.60031265 -21.15752045 0.57953156 -22.33940125 0.55812073 C-25.99704098 0.49283381 -29.65475138 0.43383714 -33.3125 0.375 C-35.79492913 0.33179496 -38.27735116 0.28818003 -40.75976562 0.24414062 C-46.83976945 0.13717378 -52.91984329 0.03536886 -59 -0.0625 C-59 -0.3925 -59 -0.7225 -59 -1.0625 C-51.68611143 -1.23095334 -44.372071 -1.390801 -37.05786133 -1.54467773 C-34.56986232 -1.59803486 -32.08190468 -1.6533592 -29.59399414 -1.71069336 C-26.01718059 -1.79277948 -22.44027774 -1.86778146 -18.86328125 -1.94140625 C-17.19583611 -1.98195885 -17.19583611 -1.98195885 -15.4947052 -2.02333069 C-13.93365303 -2.05347511 -13.93365303 -2.05347511 -12.34106445 -2.08422852 C-10.97205742 -2.11420677 -10.97205742 -2.11420677 -9.57539368 -2.14479065 C-6.10322783 -2.03384575 -3.08401365 -1.63838225 0 0 Z " fill="#F3DAB7" transform="translate(75,50.0625)"/>
<path d="M0 0 C0.33 0 0.66 0 1 0 C1.58185569 15.9687061 -1.80462542 28.24347838 -10 42 C-10.66 42 -11.32 42 -12 42 C-12.33 43.32 -12.66 44.64 -13 46 C-13.33 46 -13.66 46 -14 46 C-14.05787784 42.37506666 -14.0935542 38.75025143 -14.125 35.125 C-14.14175781 34.09246094 -14.15851563 33.05992188 -14.17578125 31.99609375 C-14.18222656 31.00996094 -14.18867188 30.02382812 -14.1953125 29.0078125 C-14.20578613 28.09660645 -14.21625977 27.18540039 -14.22705078 26.24658203 C-14 24 -14 24 -12 22 C-12 28 -12 34 -12 40 C-11.67 39.01 -11.34 38.02 -11 37 C-10.34 37 -9.68 37 -9 37 C-8.67 34.69 -8.34 32.38 -8 30 C-7.34 30 -6.68 30 -6 30 C-1.93283559 20.43952263 -0.53863406 10.30834146 0 0 Z " fill="#D56D32" transform="translate(226,39)"/>
<path d="M0 0 C0.99 0.495 0.99 0.495 2 1 C2.33 1.99 2.66 2.98 3 4 C3.66 4.33 4.32 4.66 5 5 C5.92334034 7.35032087 6.04992547 8.76045971 5.53236389 11.24369812 C4.9366742 14.32786787 4.83873956 17.20985109 4.79467773 20.35083008 C4.77473251 21.6117598 4.75478729 22.87268951 4.73423767 24.17182922 C4.71725732 25.53772867 4.70037837 26.90362938 4.68359375 28.26953125 C4.66300526 29.67486659 4.6420083 31.080196 4.62062073 32.48551941 C4.56559565 36.17287373 4.51610067 39.86028212 4.46777344 43.54772949 C4.41741496 47.31507136 4.361804 51.08233534 4.30664062 54.84960938 C4.19929859 62.23300683 4.09780112 69.61646934 4 77 C3.67 77 3.34 77 3 77 C2.99191315 76.13857895 2.98382629 75.2771579 2.97549438 74.38963318 C2.89740792 66.25365983 2.81007513 58.11784879 2.71247292 49.98208523 C2.66262306 45.79985785 2.61629242 41.61765434 2.578125 37.43530273 C2.54112879 33.39570151 2.4947308 29.35630573 2.44193649 25.31688118 C2.42346845 23.77923261 2.40833276 22.24154013 2.39665604 20.703825 C2.37966273 18.54249104 2.35059831 16.38161985 2.31884766 14.22045898 C2.30552399 12.99246078 2.29220032 11.76446259 2.2784729 10.49925232 C1.97616718 6.70051999 1.16224912 3.61542171 0 0 Z " fill="#F1D7BC" transform="translate(86,62)"/>
<path d="M0 0 C2.49361571 1.20381448 4.68143083 2.45428722 7 4 C7 4.66 7 5.32 7 6 C7.66 6 8.32 6 9 6 C10.125 9.75 10.125 9.75 9 12 C8.84693099 13.81171098 8.75053339 15.6283794 8.68359375 17.4453125 C8.64169922 18.52167969 8.59980469 19.59804687 8.55664062 20.70703125 C8.49766602 22.39892578 8.49766602 22.39892578 8.4375 24.125 C8.39431641 25.26066406 8.35113281 26.39632812 8.30664062 27.56640625 C8.2003396 30.37747768 8.09830595 33.18863945 8 36 C7.34 35.67 6.68 35.34 6 35 C5.99589111 34.18845459 5.99178223 33.37690918 5.98754883 32.54077148 C5.95451343 28.83895693 5.88385412 25.13876615 5.8125 21.4375 C5.80669922 20.16068359 5.80089844 18.88386719 5.79492188 17.56835938 C5.61973505 10.07425643 5.22546101 5.54215562 0 0 Z " fill="#EDC6B7" transform="translate(204,51)"/>
<path d="M0 0 C0.33 1.32 0.66 2.64 1 4 C0.32904297 4.54527344 0.32904297 4.54527344 -0.35546875 5.1015625 C-3.80964152 7.97390233 -6.67708918 10.81152863 -9.4765625 14.34375 C-12.85916289 18.02124376 -16.90855339 21.14684962 -21 24 C-21.66 24 -22.32 24 -23 24 C-23 24.66 -23 25.32 -23 26 C-24.65 26.66 -26.3 27.32 -28 28 C-26.67796202 24.03388605 -24.77541663 23.19616674 -21.375 20.8125 C-16.70442089 17.4673555 -12.85439821 13.96344846 -9.3046875 9.43359375 C-8.87414062 8.96050781 -8.44359375 8.48742187 -8 8 C-7.34 8 -6.68 8 -6 8 C-6 7.34 -6 6.68 -6 6 C-5.34 6 -4.68 6 -4 6 C-3.71125 5.195625 -3.4225 4.39125 -3.125 3.5625 C-2 1 -2 1 0 0 Z " fill="#F69031" transform="translate(70,166)"/>
<path d="M0 0 C0.66 0.33 1.32 0.66 2 1 C0.38405168 3.04119788 -1.2856382 5.04072937 -3 7 C-3.66 7 -4.32 7 -5 7 C-5.33 8.98 -5.66 10.96 -6 13 C-6.86625 13.12375 -6.86625 13.12375 -7.75 13.25 C-10.60798931 14.2026631 -11.92954588 15.86053074 -14 18 C-14.66 18 -15.32 18 -16 18 C-16 17.01 -16 16.02 -16 15 C-15.34 15 -14.68 15 -14 15 C-13.773125 14.27296875 -13.54625 13.5459375 -13.3125 12.796875 C-11.72612225 9.41637956 -9.81337687 7.68716949 -7 5.25 C-6.113125 4.47140625 -5.22625 3.6928125 -4.3125 2.890625 C-2 1 -2 1 0 0 Z " fill="#F2C050" transform="translate(165,10)"/>
<path d="M0 0 C0.33 0 0.66 0 1 0 C1.22327278 8.5531012 1.42477479 17.10631847 1.59840012 25.66055775 C1.67970557 29.63253167 1.7685384 33.60404103 1.87451172 37.57543945 C1.9764824 41.4071785 2.05876116 45.23887853 2.12732697 49.07135582 C2.15697607 50.53435924 2.19375228 51.99723593 2.2377243 53.45987892 C2.29805651 55.50698545 2.33315601 57.55307546 2.36230469 59.60083008 C2.38895203 60.76665115 2.41559937 61.93247223 2.4430542 63.13362122 C2 66 2 66 -0.02264404 67.89994812 C-0.67517151 68.26296524 -1.32769897 68.62598236 -2 69 C-1.83923477 68.14332733 -1.67846954 67.28665466 -1.51283264 66.40402222 C-1.01000921 63.06643799 -0.84208578 59.90838824 -0.79467773 56.53564453 C-0.77473251 55.27479034 -0.75478729 54.01393616 -0.73423767 52.71487427 C-0.71725866 51.35418823 -0.70037967 49.99350094 -0.68359375 48.6328125 C-0.66299884 47.22890649 -0.64200174 45.82500632 -0.62062073 44.42111206 C-0.56566179 40.7419918 -0.5161381 37.06281803 -0.46777344 33.38360596 C-0.41736615 29.62287687 -0.36178087 25.86222464 -0.30664062 22.1015625 C-0.1993797 14.73444025 -0.09786479 7.3672537 0 0 Z " fill="#E48F3B" transform="translate(90,76)"/>
<path d="M0 0 C0.33 0 0.66 0 1 0 C1.09951569 4.83799361 1.17177037 9.67538025 1.21972656 14.51416016 C1.23973571 16.1571695 1.26695213 17.80010859 1.30175781 19.44287109 C1.35075305 21.81625788 1.37307504 24.18869649 1.390625 26.5625 C1.41127014 27.28679199 1.43191528 28.01108398 1.45318604 28.75732422 C1.45563717 34.43741431 -0.19637134 38.07182229 -3 43 C-3.66 43 -4.32 43 -5 43 C-5 43.66 -5 44.32 -5 45 C-6.485 45.495 -6.485 45.495 -8 46 C-8.33 44.68 -8.66 43.36 -9 42 C-8.34 42 -7.68 42 -7 42 C-6.731875 41.236875 -6.46375 40.47375 -6.1875 39.6875 C-5.04865495 37.11011382 -4.18583329 35.73045136 -2 34 C-1.34 34 -0.68 34 0 34 C0 22.78 0 11.56 0 0 Z " fill="#C1D3BB" transform="translate(257,154)"/>
<path d="M0 0 C0 0.66 0 1.32 0 2 C-0.99 2.33 -1.98 2.66 -3 3 C11.19 3.33 25.38 3.66 40 4 C40 4.33 40 4.66 40 5 C23.17 5 6.34 5 -11 5 C-11 4.34 -11 3.68 -11 3 C-9.54293274 2.49632243 -8.08429904 1.99717444 -6.625 1.5 C-5.81289062 1.2215625 -5.00078125 0.943125 -4.1640625 0.65625 C-2 0 -2 0 0 0 Z " fill="#F6DED7" transform="translate(99,200)"/>
<path d="M0 0 C3.94047072 1.51624377 5.65302669 3.8516677 8.0625 7.25 C8.73410156 8.18328125 9.40570313 9.1165625 10.09765625 10.078125 C15 17.60780287 15 17.60780287 15 21 C14.01 21 13.02 21 12 21 C12 21.66 12 22.32 12 23 C11.34 23 10.68 23 10 23 C9.90203125 22.32453125 9.8040625 21.6490625 9.703125 20.953125 C8.80681832 15.60619207 8.19795277 12.65628144 4 9 C3.62690101 7.34178227 3.29299023 5.67422986 3 4 C1.53228729 1.73545927 1.53228729 1.73545927 0 0 Z " fill="#E68B60" transform="translate(112,22)"/>
<path d="M0 0 C0.33 0 0.66 0 1 0 C1.33 2.97 1.66 5.94 2 9 C1.01 8.67 0.02 8.34 -1 8 C-1.33 23.18 -1.66 38.36 -2 54 C-2.33 54 -2.66 54 -3 54 C-3.07463276 47.91685614 -3.12882912 41.83398388 -3.16479492 35.75048828 C-3.17980192 33.68468579 -3.200214 31.61891472 -3.22631836 29.55322266 C-3.26305961 26.56925662 -3.27980764 23.58571493 -3.29296875 20.6015625 C-3.30845261 19.69072906 -3.32393646 18.77989563 -3.33988953 17.84146118 C-3.3415366 11.44372283 -2.14286515 6.02035112 0 0 Z " fill="#C0C5C0" transform="translate(236,32)"/>
<path d="M0 0 C4.1546008 1.31421046 5.93157373 2.7021247 8.25 6.375 C8.75015625 7.14585938 9.2503125 7.91671875 9.765625 8.7109375 C12.54992498 13.87422797 12.39929093 19.25206775 12 25 C11 28.125 11 28.125 10 30 C8.46733418 26.93466836 8.89723529 23.73245728 8.9375 20.375 C8.94201172 19.66859375 8.94652344 18.9621875 8.95117188 18.234375 C8.96296125 16.48954725 8.98089676 14.744763 9 13 C8.67 13 8.34 13 8 13 C8 11.35 8 9.7 8 8 C7.21625 7.938125 6.4325 7.87625 5.625 7.8125 C4.75875 7.544375 3.8925 7.27625 3 7 C1.75 4.5625 1.75 4.5625 1 2 C0.67 1.34 0.34 0.68 0 0 Z " fill="#A8B4A6" transform="translate(376,8)"/>
<path d="M0 0 C0.66 0.33 1.32 0.66 2 1 C1.71801758 1.52319824 1.43603516 2.04639648 1.14550781 2.58544922 C-6.17147129 15.94969152 -6.17147129 15.94969152 -12 30 C-13.27929846 26.16210461 -12.41877666 24.69580199 -11.0625 20.9375 C-9.545608 17.05623753 -9.545608 17.05623753 -9 13 C-8.34 12.67 -7.68 12.34 -7 12 C-6.15771266 9.7068617 -5.53067061 7.38505043 -4.87890625 5.03125 C-4.58886719 4.3609375 -4.29882812 3.690625 -4 3 C-3.01 2.67 -2.02 2.34 -1 2 C-0.67 1.34 -0.34 0.68 0 0 Z " fill="#FAAE29" transform="translate(157,55)"/>
<path d="M0 0 C0.66 0.66 1.32 1.32 2 2 C1.61935804 8.85155525 -0.24786579 15.38817278 -2 22 C-2.33 22 -2.66 22 -3 22 C-3.08710289 18.89601022 -3.14042309 15.79233452 -3.1875 12.6875 C-3.21263672 11.80642578 -3.23777344 10.92535156 -3.26367188 10.01757812 C-3.27333984 9.17001953 -3.28300781 8.32246094 -3.29296875 7.44921875 C-3.3086792 6.66893311 -3.32438965 5.88864746 -3.34057617 5.0847168 C-2.91847304 2.50096147 -1.98510058 1.63707833 0 0 Z " fill="#FCB928" transform="translate(142,83)"/>
<path d="M0 0 C0.66 0.33 1.32 0.66 2 1 C0.7260411 3.03833424 -0.61061923 5.03852126 -2 7 C-2.66 7 -3.32 7 -4 7 C-4 7.66 -4 8.32 -4 9 C-7.46153846 12 -7.46153846 12 -10 12 C-10 12.66 -10 13.32 -10 14 C-10.66 14 -11.32 14 -12 14 C-12.33 14.99 -12.66 15.98 -13 17 C-15.5625 18.1875 -15.5625 18.1875 -18 19 C-18 18.34 -18 17.68 -18 17 C-16.68 16.67 -15.36 16.34 -14 16 C-13.91234375 15.41089844 -13.8246875 14.82179687 -13.734375 14.21484375 C-12.80267808 11.40488548 -11.53211708 10.4199374 -9.25 8.5625 C-5.98743727 5.83978578 -2.95687786 3.04928029 0 0 Z " fill="#F48B34" transform="translate(84,174)"/>
<path d="M0 0 C0.33 0 0.66 0 1 0 C1 2.31 1 4.62 1 7 C0.34 7 -0.32 7 -1 7 C-1.84757725 11.40605632 -2.13475983 15.57785895 -2.125 20.0625 C-2.12757813 21.24972656 -2.13015625 22.43695313 -2.1328125 23.66015625 C-2.01668682 26.58037565 -1.63792319 29.15972295 -1 32 C-1 32.66 -1 33.32 -1 34 C-2.485 34.495 -2.485 34.495 -4 35 C-4.08858959 31.39599373 -4.14091522 27.79227455 -4.1875 24.1875 C-4.21263672 23.18267578 -4.23777344 22.17785156 -4.26367188 21.14257812 C-4.3322813 14.03006822 -3.41773937 7.7145385 -1 1 C-0.67 0.67 -0.34 0.34 0 0 Z " fill="#F6C430" transform="translate(144,36)"/>
<path d="M0 0 C1.65 0 3.3 0 5 0 C5.33 0.99 5.66 1.98 6 3 C11.60341521 4.12256971 17.1818301 4.32721317 22.875 4.5625 C24.33679687 4.62727539 24.33679687 4.62727539 25.828125 4.69335938 C28.21862802 4.79882274 30.60922444 4.90094175 33 5 C33 5.33 33 5.66 33 6 C28.81287049 6.14599475 24.62640105 6.23430718 20.4375 6.3125 C19.25607422 6.35439453 18.07464844 6.39628906 16.85742188 6.43945312 C9.5317539 6.54205352 5.38430544 6.14711137 0 1 C0 0.67 0 0.34 0 0 Z " fill="#E8A343" transform="translate(7,198)"/>
<path d="M0 0 C1.78764251 5.36292754 -0.34550514 10.56514589 -2.625 15.5625 C-3.07875 16.366875 -3.5325 17.17125 -4 18 C-4.33 18 -4.66 18 -5 18 C-3.81761006 5.27044025 -3.81761006 5.27044025 -3 2 C-2.01 1.34 -1.02 0.68 0 0 Z " fill="#527E43" transform="translate(253,87)"/>
<path d="M0 0 C9.49962438 -0.26066043 17.20530891 0.15232265 26 4 C26 4.33 26 4.66 26 5 C23.69 5 21.38 5 19 5 C19 4.34 19 3.68 19 3 C18.21753906 3.01160156 17.43507812 3.02320313 16.62890625 3.03515625 C15.61699219 3.04417969 14.60507813 3.05320312 13.5625 3.0625 C12.55316406 3.07410156 11.54382813 3.08570313 10.50390625 3.09765625 C8 3 8 3 7 2 C4.67182036 1.63239269 2.3381615 1.29758419 0 1 C0 0.67 0 0.34 0 0 Z " fill="#EFBD8C" transform="translate(181,5)"/>
<path d="M0 0 C0.99 0.33 1.98 0.66 3 1 C-4.36368094 6.93185409 -13.72472061 8.53511227 -23 8 C-23.33 7.34 -23.66 6.68 -24 6 C-23.33355469 5.97421875 -22.66710937 5.9484375 -21.98046875 5.921875 C-14.06227934 5.43460181 -7.1078079 3.55390395 0 0 Z " fill="#F89633" transform="translate(38,194)"/>
<path d="M0 0 C0.33 0 0.66 0 1 0 C1.05384521 2.29141286 1.09272087 4.58318188 1.125 6.875 C1.14820313 8.15117188 1.17140625 9.42734375 1.1953125 10.7421875 C1 14 1 14 -1 16 C-1.71408334 17.98356483 -2.38617742 19.98315437 -3 22 C-3.33 22 -3.66 22 -4 22 C-3.5697663 14.3299717 -2.25768639 7.34103058 0 0 Z " fill="#517C40" transform="translate(256,65)"/>
<path d="M0 0 C0.33 0 0.66 0 1 0 C1.7630544 12.53104884 1.7630544 12.53104884 -0.04296875 16.0078125 C-1.82415339 17.75243324 -3.77956685 18.88978343 -6 20 C-5.81824219 19.47792969 -5.63648438 18.95585938 -5.44921875 18.41796875 C-3.37440957 12.34250187 -1.63584831 6.20694217 0 0 Z " fill="#758437" transform="translate(226,54)"/>
<path d="M0 0 C1.9375 0.5625 1.9375 0.5625 4 2 C4.75 5.625 4.75 5.625 5 9 C2.69 9 0.38 9 -2 9 C-2 6.69 -2 4.38 -2 2 C-1.34 2 -0.68 2 0 2 C0 1.34 0 0.68 0 0 Z " fill="#EA6C2E" transform="translate(218,22)"/>
<path d="M0 0 C0.66 0.33 1.32 0.66 2 1 C-2.09485012 6.82489317 -5.50191623 10.94987904 -12 14 C-10.60089587 9.47301364 -8.4384826 7.24844018 -4.875 4.1875 C-3.96492187 3.39730469 -3.05484375 2.60710938 -2.1171875 1.79296875 C-1.06917969 0.90544922 -1.06917969 0.90544922 0 0 Z " fill="#8F9A92" transform="translate(253,10)"/>
<path d="M0 0 C0 1.32 0 2.64 0 4 C-0.66 4 -1.32 4 -2 4 C-2 4.66 -2 5.32 -2 6 C-5.67410785 7.17571451 -9.16929183 7.07366746 -13 7 C-12 4 -12 4 -10.22265625 3.0859375 C-9.50980469 2.85132813 -8.79695312 2.61671875 -8.0625 2.375 C-1.02688172 0 -1.02688172 0 0 0 Z " fill="#F9BD16" transform="translate(21,7)"/>
<path d="M0 0 C0.33 1.65 0.66 3.3 1 5 C-0.98 5 -2.96 5 -5 5 C-5.66 6.32 -6.32 7.64 -7 9 C-9.97 8.505 -9.97 8.505 -13 8 C-3.28571429 0 -3.28571429 0 0 0 Z " fill="#EDAA93" transform="translate(112,192)"/>
<path d="M0 0 C1.65 0 3.3 0 5 0 C3.87548273 2.9719385 2.77706209 5.33440687 1 8 C0.34 8 -0.32 8 -1 8 C-1.66 9.65 -2.32 11.3 -3 13 C-3.66 13 -4.32 13 -5 13 C-5 13.66 -5 14.32 -5 15 C-5.66 15 -6.32 15 -7 15 C-5.86674509 12.45017645 -4.70098518 10.64821786 -2.875 8.5 C-0.6 5.9875 -0.6 5.9875 -1 2 C-0.67 1.34 -0.34 0.68 0 0 Z " fill="#E66927" transform="translate(69,159)"/>
<path d="M0 0 C6.92612633 1.44819005 13.08910155 5.0486328 17 11 C14.125 10.75 14.125 10.75 11 10 C10.3162955 8.67532254 9.65035814 7.34136367 9 6 C7.00428677 5.32060826 5.00405227 4.65438441 3 4 C1.125 1.875 1.125 1.875 0 0 Z " fill="#EFC39C" transform="translate(95,11)"/>
<path d="M0 0 C1.25 1.5625 1.25 1.5625 2 4 C1.09938702 5.66780181 0.18046083 7.3295051 -0.84765625 8.921875 C-2.60581917 12.09252812 -3.39146851 15.46560091 -4.2890625 18.9609375 C-5 21 -5 21 -7 22 C-6.74322411 20.24788218 -6.46897047 18.49832064 -6.1875 16.75 C-6.03667969 15.77546875 -5.88585937 14.8009375 -5.73046875 13.796875 C-4.95675688 10.83442742 -3.88789654 9.35987068 -2 7 C-1.26739841 4.68652128 -0.588562 2.354248 0 0 Z " fill="#F17E34" transform="translate(112,117)"/>
<path d="M0 0 C0.66 0.99 1.32 1.98 2 3 C1.68770276 4.33841672 1.35169068 5.67139075 1 7 C1.226875 7.825 1.45375 8.65 1.6875 9.5 C1.790625 10.325 1.89375 11.15 2 12 C0.0625 14.3125 0.0625 14.3125 -2 16 C-2.20413361 10.26157749 -2.27141454 5.39460953 0 0 Z " fill="#FABF19" transform="translate(143,43)"/>
<path d="M0 0 C0 3.25811062 -0.5522078 5.10441559 -2 8 C-5 9 -5 9 -8 8 C-8.33 8.99 -8.66 9.98 -9 11 C-9 10.34 -9 9.68 -9 9 C-10.32 8.67 -11.64 8.34 -13 8 C-12.31292969 7.67386719 -11.62585938 7.34773437 -10.91796875 7.01171875 C-10.01691406 6.57472656 -9.11585937 6.13773438 -8.1875 5.6875 C-7.29417969 5.25824219 -6.40085937 4.82898438 -5.48046875 4.38671875 C-3.21068067 3.11778211 -1.70751829 1.93443102 0 0 Z " fill="#F4CEB0" transform="translate(83,150)"/>
<path d="M0 0 C0.66 0.33 1.32 0.66 2 1 C-1.13893366 5.12545567 -2.99879149 7.3329305 -8 9 C-9.36365283 9.95824253 -10.70794169 10.94721175 -12 12 C-10.47940093 8.11985064 -8.13921469 6.26093438 -4.875 3.75 C-3.96492187 3.04359375 -3.05484375 2.3371875 -2.1171875 1.609375 C-1.41851562 1.07828125 -0.71984375 0.5471875 0 0 Z " fill="#F6DAA8" transform="translate(165,10)"/>
<path d="M0 0 C1.32 0 2.64 0 4 0 C2.87548273 2.9719385 1.77706209 5.33440687 0 8 C-0.66 8 -1.32 8 -2 8 C-2 8.66 -2 9.32 -2 10 C-2.66 10 -3.32 10 -4 10 C-4 10.66 -4 11.32 -4 12 C-4.66 11.67 -5.32 11.34 -6 11 C-5.34 9.35 -4.68 7.7 -4 6 C-3.01 6 -2.02 6 -1 6 C-0.67 4.02 -0.34 2.04 0 0 Z " fill="#EBAB8C" transform="translate(172,181)"/>
<path d="M0 0 C-0.875 6.75 -0.875 6.75 -2 9 C-2.66 9 -3.32 9 -4 9 C-4 9.66 -4 10.32 -4 11 C-4.99 11.33 -5.98 11.66 -7 12 C-7.33 10.68 -7.66 9.36 -8 8 C-7.34 8 -6.68 8 -6 8 C-5.731875 7.236875 -5.46375 6.47375 -5.1875 5.6875 C-2.6744186 0 -2.6744186 0 0 0 Z " fill="#91AA86" transform="translate(256,188)"/>
<path d="M0 0 C2.57781906 2.57781906 2.62129616 4.4401839 3 8 C2.67 8.33 2.34 8.66 2 9 C2 10.95185071 2.00311814 12.90382078 2.03125 14.85546875 C1.99074063 17.6354242 1.54434848 20.2782576 1 23 C0.67 23 0.34 23 0 23 C0 15.41 0 7.82 0 0 Z " fill="#2C422A" transform="translate(212,127)"/>
<path d="M0 0 C-1.30123846 3.90371537 -3.11715718 4.8170602 -6.4375 7.1875 C-7.42621094 7.90292969 -8.41492187 8.61835938 -9.43359375 9.35546875 C-12 11 -12 11 -14 11 C-14 10.34 -14 9.68 -14 9 C-12.13671875 7.59765625 -12.13671875 7.59765625 -9.6875 6.0625 C-7.34850473 4.58979927 -5.27481849 3.27868011 -3.33203125 1.30859375 C-2 0 -2 0 0 0 Z " fill="#E46921" transform="translate(54,182)"/>
<path d="M0 0 C0.66 0.33 1.32 0.66 2 1 C-0.86720436 4.04640463 -3.83935407 6.78043089 -7.125 9.375 C-7.78757812 9.89835938 -8.45015625 10.42171875 -9.1328125 10.9609375 C-9.74898438 11.30382812 -10.36515625 11.64671875 -11 12 C-11.99 11.67 -12.98 11.34 -14 11 C-12.20963542 10.0234375 -10.41927083 9.046875 -8.62890625 8.0703125 C-6.83381685 7.08589976 -6.83381685 7.08589976 -6 5 C-5.34 5 -4.68 5 -4 5 C-4 4.34 -4 3.68 -4 3 C-2 1.375 -2 1.375 0 0 Z " fill="#E96A27" transform="translate(78,183)"/>
<path d="M0 0 C0.33 0 0.66 0 1 0 C1.1875 3.375 1.1875 3.375 1 7 C0.01 7.66 -0.98 8.32 -2 9 C-2.33 9.99 -2.66 10.98 -3 12 C-5.0625 12.6875 -5.0625 12.6875 -7 13 C-5.54331217 10.03216871 -3.98767914 7.13584687 -2.375 4.25 C-1.92898437 3.45078125 -1.48296875 2.6515625 -1.0234375 1.828125 C-0.68570313 1.22484375 -0.34796875 0.6215625 0 0 Z " fill="#ECA993" transform="translate(130,168)"/>
<path d="M0 0 C0.33 0 0.66 0 1 0 C1.31563182 5.26053037 0.66590937 8.44573816 -2 13 C-2.33 13 -2.66 13 -3 13 C-3 9.37 -3 5.74 -3 2 C-2.34 2 -1.68 2 -1 2 C-0.67 1.34 -0.34 0.68 0 0 Z " fill="#E9A57F" transform="translate(179,168)"/>
<path d="M0 0 C0.33 0 0.66 0 1 0 C1 5.61 1 11.22 1 17 C-2 14 -2 14 -2.1875 10.5 C-2.125625 9.345 -2.06375 8.19 -2 7 C-2 6.01 -2 5.02 -2 4 C-1.34 4 -0.68 4 0 4 C0 2.68 0 1.36 0 0 Z " fill="#476A39" transform="translate(330,126)"/>
<path d="M0 0 C0.33 0 0.66 0 1 0 C1.37656854 3.29497473 1.28684039 4.62096091 -0.75 7.3125 C-1.4925 8.199375 -2.235 9.08625 -3 10 C-4.44436618 12.6154739 -5.7371078 15.29284279 -7 18 C-7.33 17.34 -7.66 16.68 -8 16 C-7.37915039 14.30419922 -7.37915039 14.30419922 -6.34765625 12.3046875 C-5.98349609 11.58925781 -5.61933594 10.87382813 -5.24414062 10.13671875 C-4.85419922 9.39035156 -4.46425781 8.64398438 -4.0625 7.875 C-3.67642578 7.12089844 -3.29035156 6.36679688 -2.89257812 5.58984375 C-1.93547868 3.72290903 -0.96863894 1.86097372 0 0 Z " fill="#E3731D" transform="translate(155,62)"/>
<path d="M0 0 C-0.639375 0.268125 -1.27875 0.53625 -1.9375 0.8125 C-4.33131686 1.88667752 -4.33131686 1.88667752 -5 5 C-5 4.34 -5 3.68 -5 3 C-9.455 4.485 -9.455 4.485 -14 6 C-9.31601535 1.15449864 -6.84113085 -0.25815588 0 0 Z " fill="#F4D371" transform="translate(21,6)"/>
<path d="M0 0 C0.66 0 1.32 0 2 0 C1.43174347 5.54050113 -0.62886517 10.03715966 -3 15 C-4.24546405 12.50907189 -3.7767578 11.58919267 -3 9 C-3.66 8.67 -4.32 8.34 -5 8 C-3.625 6.5 -3.625 6.5 -2 5 C-1.34 5 -0.68 5 0 5 C0 3.35 0 1.7 0 0 Z " fill="#E9AC96" transform="translate(129,154)"/>
<path d="M0 0 C3.67056937 1.47797262 5.41085783 3.47615477 7.75 6.625 C8.67039062 7.85089844 8.67039062 7.85089844 9.609375 9.1015625 C10.29773438 10.04128906 10.29773438 10.04128906 11 11 C10.67 11.66 10.34 12.32 10 13 C4.18066961 9.65698042 4.18066961 9.65698042 3.3125 6.5 C3.209375 5.675 3.10625 4.85 3 4 C1.53228729 1.73545927 1.53228729 1.73545927 0 0 Z " fill="#F1CCB1" transform="translate(112,22)"/>
<path d="M0 0 C-6.95794893 3.64154337 -12.11049093 5.64668107 -20 5 C-20 4.67 -20 4.34 -20 4 C-19.02417969 3.72285156 -18.04835937 3.44570312 -17.04296875 3.16015625 C-15.75780249 2.794306 -14.47264679 2.42841864 -13.1875 2.0625 C-11.92292969 1.70285156 -10.65835938 1.34320313 -9.35546875 0.97265625 C-2.79078456 -0.93026152 -2.79078456 -0.93026152 0 0 Z " fill="#DF7129" transform="translate(60,199)"/>
<path d="M0 0 C0.33 0.66 0.66 1.32 1 2 C3.02463255 2.65213292 3.02463255 2.65213292 5 3 C5.33 2.34 5.66 1.68 6 1 C6.66 2.32 7.32 3.64 8 5 C6.1875 6.0625 6.1875 6.0625 4 7 C3.01 6.67 2.02 6.34 1 6 C0.67 4.02 0.34 2.04 0 0 Z " fill="#304E2F" transform="translate(215,190)"/>
<path d="M0 0 C-0.66 1.32 -1.32 2.64 -2 4 C-5 2 -8 0 -11 -2 C-6.38619749 -3.49270081 -4.10342037 -2.38570952 0 0 Z " fill="#90AC82" transform="translate(287,51)"/>
<path d="M0 0 C0.66 0.33 1.32 0.66 2 1 C1.484375 1.639375 0.96875 2.27875 0.4375 2.9375 C-2.74202403 6.9322866 -5.87094582 10.96562958 -9 15 C-9.33 14.34 -9.66 13.68 -10 13 C-8.7260411 10.96166576 -7.38938077 8.96147874 -6 7 C-5.34 7 -4.68 7 -4 7 C-3.8453125 6.1028125 -3.8453125 6.1028125 -3.6875 5.1875 C-2.91123545 2.71756736 -1.92911079 1.67748765 0 0 Z " fill="#E67221" transform="translate(166,47)"/>
<path d="M0 0 C0.66 0 1.32 0 2 0 C2 3.96 2 7.92 2 12 C0.02 11.01 -1.96 10.02 -4 9 C-3.34 8.443125 -2.68 7.88625 -2 7.3125 C0.25492211 5.15937692 0.25492211 5.15937692 0.25 2.25 C0.1675 1.5075 0.085 0.765 0 0 Z " fill="#45683C" transform="translate(329,156)"/>
<path d="M0 0 C0.33 0 0.66 0 1 0 C1.09038099 5.15171623 0.84681133 9.91913204 0 15 C-0.99 15.33 -1.98 15.66 -3 16 C-2.152874 10.63486869 -1.08318169 5.3212615 0 0 Z " fill="#EAAE99" transform="translate(137,145)"/>
<path d="M0 0 C0.66 1.32 1.32 2.64 2 4 C1.01 4.495 1.01 4.495 0 5 C-0.68729254 7.11846285 -0.68729254 7.11846285 -1.125 9.5625 C-1.29257812 10.38878906 -1.46015625 11.21507812 -1.6328125 12.06640625 C-1.75398438 12.70449219 -1.87515625 13.34257813 -2 14 C-2.99 13.67 -3.98 13.34 -5 13 C-4.54554036 11.58208592 -4.08625056 10.16571954 -3.625 8.75 C-3.24214844 7.56664062 -3.24214844 7.56664062 -2.8515625 6.359375 C-2.04826333 4.13372042 -1.10288338 2.09068328 0 0 Z " fill="#44683D" transform="translate(267,36)"/>
<path d="M0 0 C3.02076303 1.00692101 4.72285584 1.80137805 7 4 C7.25 6.6875 7.25 6.6875 7 9 C3.17475764 7.549046 1.80909034 5.61818068 0 2 C0 1.34 0 0.68 0 0 Z " fill="#F6DE83" transform="translate(2,36)"/>
<path d="M0 0 C-3.08809695 1.76462683 -4.23312136 2 -8 2 C-8.33 2.99 -8.66 3.98 -9 5 C-11.5625 6.1875 -11.5625 6.1875 -14 7 C-14 6.01 -14 5.02 -14 4 C-12.42466914 3.13116294 -10.83935491 2.28040932 -9.25 1.4375 C-8.36828125 0.96183594 -7.4865625 0.48617187 -6.578125 -0.00390625 C-3.79298812 -1.07998186 -2.73019786 -1.06528748 0 0 Z " fill="#E87223" transform="translate(184,39)"/>
<path d="M0 0 C-0.99 0 -1.98 0 -3 0 C-3 0.66 -3 1.32 -3 2 C-3.99 2.495 -3.99 2.495 -5 3 C-4.67 3.66 -4.34 4.32 -4 5 C-4.99 5 -5.98 5 -7 5 C-7.33 5.66 -7.66 6.32 -8 7 C-8 6.01 -8 5.02 -8 4 C-8.66 3.67 -9.32 3.34 -10 3 C-6.81859267 -0.48439851 -4.56758339 -1.41752588 0 0 Z " fill="#578841" transform="translate(296,16)"/>
<path d="M0 0 C4.75 0.75 4.75 0.75 7 3 C7.66 3 8.32 3 9 3 C9.66 4.65 10.32 6.3 11 8 C6.40378078 6.5129879 3.53027653 4.20187872 0 1 C0 0.67 0 0.34 0 0 Z " fill="#879585" transform="translate(216,196)"/>
<path d="M0 0 C0.33 0 0.66 0 1 0 C1 2.31 1 4.62 1 7 C0.34 7 -0.32 7 -1 7 C-1.66 9.64 -2.32 12.28 -3 15 C-4.20186843 11.3943947 -3.66097664 9.97715732 -2.625 6.375 C-2.34914062 5.39273438 -2.07328125 4.41046875 -1.7890625 3.3984375 C-1 1 -1 1 0 0 Z " fill="#F8E6B0" transform="translate(144,36)"/>
<path d="M0 0 C0.99 0 1.98 0 3 0 C3.33 1.32 3.66 2.64 4 4 C4.99 4 5.98 4 7 4 C7.33 4.99 7.66 5.98 8 7 C4.22454612 5.90931332 1.52956528 5.0916909 -1 2 C-0.67 1.34 -0.34 0.68 0 0 Z " fill="#F3C51F" transform="translate(9,41)"/>
<path d="M0 0 C0.33 0.66 0.66 1.32 1 2 C2.32 1.34 3.64 0.68 5 0 C3.55746343 3.36591866 1.66735273 5.51047079 -1 8 C-1.66 7.67 -2.32 7.34 -3 7 C-2.01 4.69 -1.02 2.38 0 0 Z " fill="#87958A" transform="translate(324,194)"/>
<path d="M0 0 C0.33 0 0.66 0 1 0 C1.3690205 9.41002278 1.3690205 9.41002278 -1 14 C-1.94602608 10.9148254 -2.01578237 8.50740993 -1.625 5.3125 C-1.53476563 4.52488281 -1.44453125 3.73726562 -1.3515625 2.92578125 C-1 1 -1 1 0 0 Z " fill="#EA7333" transform="translate(179,159)"/>
<path d="M0 0 C0.33 0.99 0.66 1.98 1 3 C0.34 3.66 -0.32 4.32 -1 5 C-1.60713803 6.85483454 -2.14131052 8.73421385 -2.625 10.625 C-3.01558594 12.12933594 -3.01558594 12.12933594 -3.4140625 13.6640625 C-3.60742188 14.43492188 -3.80078125 15.20578125 -4 16 C-4.33 16 -4.66 16 -5 16 C-5.61669998 9.09296024 -4.11242982 5.52240576 0 0 Z " fill="#F5CA28" transform="translate(7,12)"/>
<path d="M0 0 C1.65 0 3.3 0 5 0 C5.33 0.99 5.66 1.98 6 3 C6.66 3 7.32 3 8 3 C8 3.66 8 4.32 8 5 C8.99 5.33 9.98 5.66 11 6 C6.48986609 5.46939601 3.61621781 3.69113883 0 1 C0 0.67 0 0.34 0 0 Z " fill="#EBB596" transform="translate(7,198)"/>
<path d="M0 0 C2.91517292 1.07401108 4.77810176 1.77810176 7 4 C6.625 6.125 6.625 6.125 6 8 C2.52082818 5.68055212 1.70570234 3.73630036 0 0 Z " fill="#96A494" transform="translate(376,8)"/>
<path d="M0 0 C2.31 0.33 4.62 0.66 7 1 C6.67 1.66 6.34 2.32 6 3 C1.45906828 4.41904116 -3.2943099 4.09226843 -8 4 C-8 3.67 -8 3.34 -8 3 C-6.865625 2.87625 -5.73125 2.7525 -4.5625 2.625 C-3.386875 2.41875 -2.21125 2.2125 -1 2 C-0.67 1.34 -0.34 0.68 0 0 Z " fill="#ACB9AA" transform="translate(238,201)"/>
<path d="M0 0 C-1.24460783 0.67667998 -2.49596896 1.34094719 -3.75 2 C-4.44609375 2.37125 -5.1421875 2.7425 -5.859375 3.125 C-8 4 -8 4 -12 4 C-12 3.34 -12 2.68 -12 2 C-10.75579353 1.4654744 -9.50429064 0.94791389 -8.25 0.4375 C-7.55390625 0.14746094 -6.8578125 -0.14257812 -6.140625 -0.44140625 C-3.69987216 -1.07831803 -2.3596345 -0.80248831 0 0 Z " fill="#E46B21" transform="translate(40,194)"/>
<path d="M0 0 C1.32 0.99 2.64 1.98 4 3 C2.37660195 4.70884005 0.70680947 6.37446717 -1 8 C-1.66 8 -2.32 8 -3 8 C-2.67 6.35 -2.34 4.7 -2 3 C-1.34 3 -0.68 3 0 3 C0 2.01 0 1.02 0 0 Z " fill="#E9A481" transform="translate(185,49)"/>
<path d="M0 0 C0.66 0 1.32 0 2 0 C2.33 1.32 2.66 2.64 3 4 C4.4540625 4.185625 4.4540625 4.185625 5.9375 4.375 C7.4534375 4.684375 7.4534375 4.684375 9 5 C9.33 5.66 9.66 6.32 10 7 C5.545 6.01 5.545 6.01 1 5 C0.67 3.35 0.34 1.7 0 0 Z " fill="#E98730" transform="translate(103,17)"/>
<path d="M0 0 C-1.28650706 0.69710731 -2.57940665 1.38242876 -3.875 2.0625 C-4.95394531 2.63677734 -4.95394531 2.63677734 -6.0546875 3.22265625 C-6.69664063 3.47917969 -7.33859375 3.73570312 -8 4 C-8.66 3.67 -9.32 3.34 -10 3 C-9.67 2.01 -9.34 1.02 -9 0 C-2.25 -1.125 -2.25 -1.125 0 0 Z " fill="#EEBAA5" transform="translate(99,196)"/>
<path d="M0 0 C2.49361571 1.20381448 4.68143083 2.45428722 7 4 C6.34 4 5.68 4 5 4 C5 4.66 5 5.32 5 6 C4.01 6.33 3.02 6.66 2 7 C1.34 4.69 0.68 2.38 0 0 Z " fill="#3B5833" transform="translate(225,152)"/>
<path d="M0 0 C0.66 0 1.32 0 2 0 C1.6875 1.875 1.6875 1.875 1 4 C0.01 4.66 -0.98 5.32 -2 6 C-2.33 6.99 -2.66 7.98 -3 9 C-3.66 9 -4.32 9 -5 9 C-3.7580393 5.56072421 -2.44259716 2.74792181 0 0 Z " fill="#EFC1B2" transform="translate(7,165)"/>
<path d="M0 0 C2 1 2 1 3.1875 3.8125 C3.96421451 6.85961076 4.10096399 8.13749363 3 11 C0.29417212 7.16674383 -0.32613618 4.67461851 0 0 Z " fill="#EBBBA7" transform="translate(127,44)"/>
<path d="M0 0 C1.60031344 3.20062687 0.03173691 5.72271806 -1 9 C-2.32 8.67 -3.64 8.34 -5 8 C-5 7.34 -5 6.68 -5 6 C-4.34 6 -3.68 6 -3 6 C-2.690625 5.195625 -2.38125 4.39125 -2.0625 3.5625 C-1 1 -1 1 0 0 Z " fill="#3B5E36" transform="translate(238,148)"/>
<path d="M0 0 C0.99 0.66 1.98 1.32 3 2 C2.1875 3.9375 2.1875 3.9375 1 6 C0.01 6.33 -0.98 6.66 -2 7 C-2.33 6.34 -2.66 5.68 -3 5 C-2.34 5 -1.68 5 -1 5 C-0.67 3.35 -0.34 1.7 0 0 Z " fill="#E87032" transform="translate(179,56)"/>
<path d="M0 0 C2.4375 0.375 2.4375 0.375 5 1 C5.33 1.66 5.66 2.32 6 3 C3.03 3 0.06 3 -3 3 C-2.01 2.67 -1.02 2.34 0 2 C0 1.34 0 0.68 0 0 Z " fill="#E65F36" transform="translate(99,200)"/>
<path d="M0 0 C0 3.25811062 -0.5522078 5.10441559 -2 8 C-2.99 8.33 -3.98 8.66 -5 9 C-5 4.61031544 -2.87194899 3.23094261 0 0 Z " fill="#EBB374" transform="translate(83,150)"/>
<path d="M0 0 C2.52588702 2.36292656 3.88820837 3.66462511 5 7 C4.01 7.33 3.02 7.66 2 8 C0.74335022 5.09399739 0 3.20395416 0 0 Z " fill="#2F5328" transform="translate(218,141)"/>
<path d="M0 0 C0.66 0 1.32 0 2 0 C2 2.97 2 5.94 2 9 C1.01 8.01 0.02 7.02 -1 6 C-0.34 6 0.32 6 1 6 C0.34 4.35 -0.32 2.7 -1 1 C-0.67 0.67 -0.34 0.34 0 0 Z " fill="#456B39" transform="translate(329,106)"/>
<path d="M0 0 C0.66 0.33 1.32 0.66 2 1 C1.34 4.96 0.68 8.92 0 13 C-0.33 13 -0.66 13 -1 13 C-1.02696365 11.20841511 -1.04637917 9.41671527 -1.0625 7.625 C-1.07410156 6.62726563 -1.08570313 5.62953125 -1.09765625 4.6015625 C-1 2 -1 2 0 0 Z " fill="#E86A36" transform="translate(213,61)"/>
<path d="M0 0 C2.89932357 2.39509338 3.50168276 4.31245243 4 8 C3.01 7.67 2.02 7.34 1 7 C0.67 4.69 0.34 2.38 0 0 Z " fill="#EBB9A2" transform="translate(222,24)"/>
<path d="M0 0 C2.92879371 0.62759865 5.36095629 1.58622659 8 3 C8 3.66 8 4.32 8 5 C4.75791433 4.64950425 3.38472296 4.43778819 1.1875 1.9375 C0.795625 1.298125 0.40375 0.65875 0 0 Z " fill="#F0CAA5" transform="translate(95,11)"/>
<path d="M0 0 C3.55780196 0.60990891 6.6828589 1.5783681 10 3 C10 3.33 10 3.66 10 4 C6.6875 4.25 6.6875 4.25 3 4 C1.0625 2 1.0625 2 0 0 Z " fill="#EFC6A5" transform="translate(197,6)"/>
<path d="M0 0 C-0.66 1.32 -1.32 2.64 -2 4 C-4.97 3.505 -4.97 3.505 -8 3 C-5.48696401 0.48696401 -3.51117809 0 0 0 Z " fill="#EA876A" transform="translate(107,197)"/>
<path d="M0 0 C1.31223496 3.93670488 0.24296256 6.12488144 -1 10 C-1.99 10 -2.98 10 -4 10 C-3.71125 9.46375 -3.4225 8.9275 -3.125 8.375 C-1.83288192 5.64719516 -0.91441408 2.87387282 0 0 Z " fill="#F4D6B8" transform="translate(88,140)"/>
<path d="M0 0 C2.5654594 2.5654594 2.54046087 4.47686668 3 8 C2.01 8.495 2.01 8.495 1 9 C-0.4783226 6.04335481 -0.06032783 3.25770263 0 0 Z " fill="#314F2A" transform="translate(212,127)"/>
<path d="M0 0 C1.1875 1.625 1.1875 1.625 2 4 C0.625 7.25 0.625 7.25 -1 10 C-2.31223496 6.06329512 -1.24296256 3.87511856 0 0 Z " fill="#ED732F" transform="translate(112,117)"/>
<path d="M0 0 C2.64 0 5.28 0 8 0 C5.37352812 1.75098126 2.71224618 3.38731308 0 5 C0 3.35 0 1.7 0 0 Z " fill="#A0AF9D" transform="translate(261,49)"/>
<path d="M0 0 C3.37462715 0.54723683 5.08235 1.0549 8 3 C5.36 3 2.72 3 0 3 C0 2.01 0 1.02 0 0 Z " fill="#EBBC7A" transform="translate(68,48)"/>
<path d="M0 0 C0.33 0 0.66 0 1 0 C1.33 2.97 1.66 5.94 2 9 C1.01 8.67 0.02 8.34 -1 8 C-1.125 2.25 -1.125 2.25 0 0 Z " fill="#7F8B81" transform="translate(236,32)"/>
</svg>
